<?xml version="1.0" encoding="utf-8" ?>
<svg xmlns="http://www.w3.org/2000/svg" xmlns:xlink="http://www.w3.org/1999/xlink" width="512" height="512">
	<path fill="#FFD35B" d="M91.4401 445.791L421.637 445.784L421.406 446.338C420.315 448.346 418.51 449.785 416.791 451.229L408.529 457.625C370.177 485.61 321.984 505.609 274.23 508.304L259.097 508.405C252.707 508.413 246.155 508.705 239.785 508.279C189.028 504.883 136.779 485.246 97.8455 452.404C95.7756 450.658 92.2272 448.477 91.4401 445.791Z"/>
	<path fill="#013C58" d="M44.2819 395.47C44.2136 394.562 43.3274 393.521 42.8515 392.74L30.2127 369.833L21.0425 348.066C10.0223 319.509 3.57161 290.795 3.55169 260.21L3.93318 241.536C6.18536 208.032 16.3505 170.192 32.0998 140.849L43.7395 121.5C53.9692 105.325 62.002 94.512 75.5456 80.8357L90.7379 66.1399C129.292 32.2325 177.313 11.5652 228.311 5.64151L237.75 4.97842C287.688 0.678281 339.457 12.3488 382.609 37.855C392.143 43.49 401.152 50.409 409.806 57.3024L428.517 73.0211C444.109 87.461 457.794 104.05 469.282 121.912L486.011 153.5L491.741 166.85C500.548 189.034 506.889 216.597 508.172 240.114L508.192 273.716C506.517 304.711 496.829 336.852 484.03 365.184L469.918 395.236C473.546 395.395 477.291 396.262 478.994 399.75L479.109 399.978C480.529 402.876 479.79 407.517 479.794 410.646L479.827 435.433C479.853 438.946 480.321 443.244 476.492 445.103L475.534 445.495C473.871 446.099 471.478 445.798 469.7 445.795L421.637 445.799L91.4401 445.784L44.8171 445.774C33.912 445.764 32.5341 444.925 32.5085 434.779L32.4933 410.656C32.4919 400.057 31.2814 395.892 44.2819 395.47Z"/>
	<path fill="#A8E8F9" d="M415.494 214.75L426.478 214.742L426.382 391.855C426.38 393.089 426.538 394.573 426.253 395.767L413.216 395.768L415.549 395.457L415.014 364.75C414.718 359.752 414.805 355.304 413.468 350.446C411.678 350.659 410.002 350.81 408.21 350.569L407.544 351.403L407.507 267.44C408.113 268.758 407.937 276.561 408.375 279.833C410.067 279.908 411.572 277.684 412.275 276.366L412.58 276.596L413.598 275.182L414.858 274.37L415.09 273.428C415.374 273.15 415.536 272.987 415.681 272.609L415.807 272.266C415.863 272.16 417.346 267.163 417.368 266.782L417.378 266.375C417.516 265.407 417.683 264.923 417.148 264.009L416.906 263.611C417.229 262.452 416.899 261.453 416.935 260.261L417.404 259.857C417.694 259.5 417.67 259.386 417.567 258.955L417.123 259.319C415.896 258.394 416.546 254.09 415.24 252.425L415.086 252.233C415.685 251.198 415.593 249.439 415.083 248.405C414.917 251.529 413.216 268.706 409.255 269.465L408.786 268.372C409.266 268.199 409.752 268.106 410.25 267.998C414.237 263.429 414.74 246.578 414.99 240.722L415.494 214.75Z"/>
	<path fill="#FFD35B" d="M260.836 295.905L282.732 295.859L282.87 395.683L252.063 395.254L229.895 395.24L229.889 295.993C233.126 295.649 236.645 295.918 239.91 295.916L260.836 295.905Z"/>
	<path fill="#013C58" d="M237.975 334.794C240.661 334.627 244.264 334.314 245.814 337.013C248.546 341.769 248.489 348.31 243.276 351.021C232.102 354.356 232.94 339.865 235.333 336.069C235.936 335.112 236.972 335.05 237.975 334.794Z"/>
	<path fill="#FFBA42" d="M391.663 184.881L449.673 184.82C452.018 184.81 454.526 184.58 456.848 184.906L457.25 184.967C465.461 186.083 467.166 193.526 467.313 200.819C462.977 201.398 458.432 201.162 454.063 201.165L121.125 201.19L56.1953 201.196C52.6362 201.199 49.0274 201.331 45.4885 200.916L45.2719 196.625C45.3306 182.65 62.4756 184.893 72.0136 184.892L391.663 184.881Z"/>
	<path fill="#F5A201" d="M45.6507 418.982L45.6088 409.353L466.901 409.619C467.098 411.971 466.867 414.457 466.805 416.82L466.76 427.514C466.752 428.693 466.988 430.784 466.552 431.83L45.8498 431.717C45.382 427.575 45.66 423.159 45.6507 418.982Z"/>
	<path fill="#00537A" d="M256.113 65.125L256.875 64.9689C259.708 66.0057 262.502 67.828 265.093 69.3771L323.098 106.666L369.19 133.82C372.408 135.733 375.88 137.551 378.958 139.655C380.363 140.616 381.309 141.981 382.789 142.907L409.437 158.117L426.25 166.27C427.916 167.154 429.871 168.085 430.726 169.875C429.907 174.299 422.332 172.502 419.261 172.386L392.866 171.282L257.537 171.211L176.79 171.285L155.794 171.783C154.026 171.849 152.273 172.137 150.5 172.167L112.667 172.254C110.087 172.283 107.618 172.772 105.072 172.89L95.3302 172.952C90.6428 172.966 85.9173 173.025 81.3368 171.904C87.5307 166.912 95.4218 163.924 102.227 159.809L218.966 87.7644C231.26 80.0311 243.132 71.7158 256.113 65.125Z"/>
	<path fill="#013C58" d="M252.636 90.0855C296.501 86.1343 298.859 146.241 260.226 150.761C248.053 151.301 237.744 149.314 230.737 138.883C216.244 117.309 227.807 93.6902 252.636 90.0855Z"/>
	<path fill="#00537A" d="M255.005 104.329C276.49 100.111 279.778 134.004 257.092 137.736C233.487 138.914 233.167 107.938 255.005 104.329Z"/>
	<path fill="white" d="M413.792 395.71L295.667 395.755C295.153 386.586 295.559 377.169 295.556 367.978L295.577 296.399C295.593 287.304 296.615 282.469 284.625 282.342L229.429 282.28C213.839 282.289 216.61 287.717 216.597 300.707L216.644 395.766C213.434 396.246 209.529 395.805 206.26 395.796L96.5248 395.866L96.4252 214.758L415.488 214.754L414.99 240.722C414.74 246.578 414.237 263.429 410.25 267.998C409.752 268.106 409.266 268.199 408.786 268.372L409.255 269.465C413.216 268.706 414.917 251.529 415.083 248.405C415.593 249.439 415.685 251.198 415.086 252.233L415.24 252.425C416.546 254.09 415.896 258.394 417.123 259.319L417.567 258.955C417.67 259.386 417.694 259.5 417.404 259.857L416.935 260.261C416.899 261.453 417.229 262.452 416.906 263.611L417.148 264.009C417.683 264.923 417.516 265.407 417.378 266.375L417.368 266.782C417.346 267.163 415.863 272.16 415.807 272.266L415.681 272.609C415.536 272.987 415.374 273.15 415.09 273.428L414.858 274.37L413.598 275.182L412.58 276.596L412.275 276.366C411.572 277.684 410.067 279.908 408.375 279.833C407.937 276.561 408.113 268.758 407.504 267.44L407.511 351.403L408.21 350.569C410.002 350.81 411.678 350.659 413.468 350.446C414.805 355.304 414.718 359.752 415.014 364.75L415.549 395.457L413.792 395.71Z"/>
	<path fill="#00537A" d="M118.623 257.787L186.769 257.958C203.242 257.959 199.683 264.41 199.671 278.151L199.659 354.677C199.485 358.754 197.63 358.181 193.562 358.485C192.185 358.572 190.659 358.834 189.244 358.853L126.039 358.915C110.233 358.908 112.452 355.312 112.507 342.492L112.546 270.668C112.548 268.419 112.268 265.589 112.904 263.429L113 263.125C113.884 260.259 115.769 258.731 118.623 257.787Z"/>
	<path fill="#A8E8F9" d="M125.951 272.21L146.196 272.205L146.217 296.125C145.167 297.009 128.432 296.588 125.969 296.579L125.951 272.21Z"/>
	<path fill="#A8E8F9" d="M159.431 271.989L176.56 272.059C179.614 272.068 183.054 271.765 186.035 272.346L185.854 296.97L159.45 296.736C159.072 294.344 159.377 291.526 159.383 289.069L159.431 271.989Z"/>
	<path fill="#A8E8F9" d="M125.949 310.5L146.227 310.32L146.222 345.638L126.157 345.5C125.673 344.845 125.95 313.979 125.949 310.5Z"/>
	<path fill="#A8E8F9" d="M159.437 309.993L175.764 310.258C179.045 310.276 182.838 309.924 186.028 310.588L186.039 345.236L159.448 345.429L159.437 309.993Z"/>
	<path fill="#00537A" d="M407.511 351.403C407.406 354.509 406.25 356.512 403.381 357.962L403.006 358.148C402.031 358.642 401.068 358.77 399.989 358.82L328.903 358.919C323.15 358.915 313.256 360.88 312.958 352.486C312.681 344.696 312.507 265.343 313.3 263.335L313.499 262.875C316.385 255.744 327.326 257.945 333.808 257.94L395.965 257.94C403.616 257.944 406.499 258.737 407.502 267.44L407.511 351.403Z"/>
	<path fill="#A8E8F9" d="M326.616 271.952L353.727 272.027L353.862 296.707L326.903 296.558C326.28 294.809 326.653 291.503 326.65 289.596L326.616 271.952Z"/>
	<path fill="#A8E8F9" d="M367.261 271.971L393.771 272.197L393.772 296.496L367.243 296.557L367.261 271.971Z"/>
	<path fill="#A8E8F9" d="M367.265 310.092L393.748 310.247L393.766 345.69L367.4 345.5L367.265 310.092Z"/>
	<path fill="#A8E8F9" d="M326.608 310.252L353.878 310.238L353.879 345.505L326.673 345.498C326.282 341.785 326.608 337.686 326.607 333.924L326.608 310.252Z"/>
	<path fill="#A8E8F9" d="M44.2819 395.508C44.2136 394.562 43.3274 393.521 42.8515 392.74L30.2127 369.833L21.0425 348.066C10.0223 319.509 3.57161 290.795 3.55169 260.21L3.93318 241.536C6.18536 208.032 16.3505 170.192 32.0998 140.849L43.7395 121.5C53.9692 105.325 62.002 94.512 75.5456 80.8357L90.7379 66.1399C129.292 32.2325 177.313 11.5652 228.311 5.64151L237.75 4.97842C287.688 0.678281 339.457 12.3488 382.609 37.855C392.143 43.49 401.152 50.409 409.806 57.3024L428.517 73.0211C444.109 87.461 457.794 104.05 469.282 121.912L486.011 153.5L491.741 166.85C500.548 189.034 506.889 216.597 508.172 240.114L508.192 273.716C506.517 304.711 496.829 336.852 484.03 365.184L469.918 395.236C466.138 396.01 462.056 395.733 458.223 395.74L439.656 395.758C439.851 381.428 439.219 216.232 440.076 214.834L472.676 214.75C474.501 214.744 476.963 215.026 478.587 214.118L478.828 213.987C481.337 212.564 480.769 206.894 480.703 204.526C480.056 181.41 473.038 177.523 455.669 168.209L392.948 132.226L263.163 52.1393C258.422 49.2086 256.822 48.1685 251.717 51.1413L124.63 129.112L56.8962 168.264C45.7374 174.407 35.0218 179.274 32.4418 193.25C31.8264 196.584 30.6521 209.826 32.375 212.442C34.3201 215.394 38.7827 214.75 41.8103 214.757L83.0139 214.825L82.7383 395.885C79.3769 395.603 75.9263 395.767 72.5491 395.763L54.2338 395.745C51.0303 395.74 47.4482 396.009 44.2819 395.508Z"/>
</svg>
