<?xml version="1.0" encoding="utf-8" ?>
<svg xmlns="http://www.w3.org/2000/svg" xmlns:xlink="http://www.w3.org/1999/xlink" width="512" height="512">
	<path fill="#01BEFE" d="M0 237.831L0 0L241.832 0L271.17 0L512 0L512 240.831L512 271.423L512 512L274.918 512L237.089 512L0 512L0 273.671L0 237.831ZM0 273.671L0 512L237.089 512L274.918 512C282.53 510.275 290.346 509.833 298 508.33C322.597 503.499 339.81 498.3 362.378 488.184C367.863 485.725 373.651 483.362 378.773 480.216C374.272 474.59 369.144 469.521 364.063 464.429L258.461 358.07C254.827 354.306 250.659 350.545 247.525 346.355C234.487 331.725 219.997 318.311 206.141 304.459L182.051 280.559C175.084 274.202 176.69 272.681 169.965 279.049L46.6962 401.728L32.1557 378.974C21.4551 360.613 10.6112 333.504 6.18168 312.593L1.10674 283.519C0.639549 280.345 0.749313 277.045 0.0885036 273.915L0 273.671ZM512 271.423L507.061 305.305C505.173 315.845 500.693 335.524 495.5 345.176C493.703 342.951 491.293 340.923 489.295 338.832L451.534 300.367C447.518 296.448 443.595 292.34 439.288 288.74C435.066 294.389 431.268 300.421 423.33 299.876C414.471 299.267 411.502 291.866 405.208 287.058C393.146 277.844 387.949 299.737 374.272 300.001C361.802 300.241 356.661 278.921 344.631 287.259L344.25 287.526C338.442 291.558 334.637 298.872 326.973 299.919C318.904 301.02 312.901 292.039 307.218 287.752L258.493 336.909C255.009 340.389 250.444 343.332 247.525 346.355C250.659 350.545 254.827 354.306 258.461 358.07L364.063 464.429C369.144 469.521 374.272 474.59 378.773 480.216C373.651 483.362 367.863 485.725 362.378 488.184C339.81 498.3 322.597 503.499 298 508.33C290.346 509.833 282.53 510.275 274.918 512L512 512L512 271.423ZM0.0768764 237.831C1.02812 235.178 0.558818 231.466 0.957573 228.625L4.76154 207.375C25.8242 108.125 99.6245 32.6356 197.306 7.45107C212.422 3.55376 227.117 3.23099 241.45 0.0855488L241.832 0L0 0L0.0768764 237.831ZM271.17 0L290.133 2.63565C381.079 15.9506 459.769 77.8926 493.83 162.964L500.907 183.105C503.375 190.727 505.797 198.439 507.315 206.318L511.399 236.513C511.567 237.913 511.632 239.476 512 240.831L512 0L271.17 0Z"/>
	<path fill="#FD0" d="M307.218 287.752L363.519 231.494C372.498 223.054 370.944 221.283 379.931 229.71L433.015 282.239C435.061 284.397 437.068 286.77 439.288 288.74C435.066 294.389 431.268 300.421 423.33 299.876C414.471 299.267 411.502 291.866 405.208 287.058C393.146 277.844 387.949 299.737 374.272 300.001C361.802 300.241 356.661 278.921 344.631 287.259L344.25 287.526C338.442 291.558 334.637 298.872 326.973 299.919C318.904 301.02 312.901 292.039 307.218 287.752Z"/>
	<path fill="#FD0" d="M224.912 62.3535L225.987 62.2909C259.011 60.7124 282.067 88.6944 278.312 120.875C275.686 143.38 254.746 163.416 231.995 164.323C219.18 164.811 206.957 161.522 196.884 153.352C160.96 124.213 177.263 66.6924 224.912 62.3535Z"/>
	<path fill="#82C000" d="M512 271.423L512 512L274.918 512C282.53 510.275 290.346 509.833 298 508.33C322.597 503.499 339.81 498.3 362.378 488.184C367.863 485.725 373.651 483.362 378.773 480.216C374.272 474.59 369.144 469.521 364.063 464.429L258.461 358.07C254.827 354.306 250.659 350.545 247.525 346.355C250.444 343.332 255.009 340.389 258.493 336.909L307.218 287.752C312.901 292.039 318.904 301.02 326.973 299.919C334.637 298.872 338.442 291.558 344.25 287.526L344.631 287.259C356.661 278.921 361.802 300.241 374.272 300.001C387.949 299.737 393.146 277.844 405.208 287.058C411.502 291.866 414.471 299.267 423.33 299.876C431.268 300.421 435.066 294.389 439.288 288.74C443.595 292.34 447.518 296.448 451.534 300.367L489.295 338.832C491.293 340.923 493.703 342.951 495.5 345.176C500.693 335.524 505.173 315.845 507.061 305.305L512 271.423ZM512 271.423L507.061 305.305C505.173 315.845 500.693 335.524 495.5 345.176C476.636 394.715 442.652 437.39 398.845 467.316L385.75 476.017C383.495 477.463 381.197 479.075 378.773 480.216C373.651 483.362 367.863 485.725 362.378 488.184C339.81 498.3 322.597 503.499 298 508.33C290.346 509.833 282.53 510.275 274.918 512L512 512L512 271.423Z"/>
	<path fill="#FD0" d="M0 273.671L0.0885036 273.915C0.749313 277.045 0.639549 280.345 1.10674 283.519L6.18168 312.593C10.6112 333.504 21.4551 360.613 32.1557 378.974L46.6962 401.728L169.965 279.049C176.69 272.681 175.084 274.202 182.051 280.559L206.141 304.459C219.997 318.311 234.487 331.725 247.525 346.355C250.659 350.545 254.827 354.306 258.461 358.07L364.063 464.429C369.144 469.521 374.272 474.59 378.773 480.216C373.651 483.362 367.863 485.725 362.378 488.184C339.81 498.3 322.597 503.499 298 508.33C290.346 509.833 282.53 510.275 274.918 512L237.089 512L0 512L0 273.671ZM0 273.671L0 512L237.089 512C234.941 511.309 232.444 511.141 230.211 510.824L219.5 509.246C161.155 500.231 109.707 471.418 69.1651 428.676L55.1726 412.878C52.214 409.322 49.1153 405.675 46.6962 401.728L32.1557 378.974C21.4551 360.613 10.6112 333.504 6.18168 312.593L1.10674 283.519C0.639549 280.345 0.749313 277.045 0.0885036 273.915L0 273.671Z"/>
</svg>
