<?xml version="1.0" encoding="utf-8" ?>
<svg xmlns="http://www.w3.org/2000/svg" xmlns:xlink="http://www.w3.org/1999/xlink" width="512" height="512">
	<path fill="#FFE00F" d="M0 240.83L0 0L240.083 0L268.919 0L512 0L512 242.583L512 270.922L512 512L279.915 512L226.844 512L0 512L0 269.673L0 240.83ZM0 240.83L0.0599438 269.673C1.38213 278.888 2.17441 301.907 5.40467 307.771L6.90131 314.599C7.50681 314.165 8.12547 313.852 8.79205 313.528L9.83487 314.875L10.562 316.023C11.1883 318.673 12.1842 321.229 12.3246 323.961C12.5926 324.943 12.8195 325.966 13.21 326.907L19.7985 346.475L24.0181 355.917L27.6874 363.165C27.9419 363.654 28.4843 365.062 28.8649 365.339L35.0616 377.664L36.4872 380.206L37.5674 381.889C38.2375 383.677 39.3806 386.323 39.3847 388.212C41.2453 391.034 43.9094 393.442 45.3485 396.501C47.7359 395.868 50.8617 396.198 53.3446 396.2L119.371 395.974C121.148 395.732 122.994 396.092 124.688 395.369L140.33 384.23L164.352 367.859L165.3 367.172L175.817 358.817C180.799 355.368 185.238 350.409 189.505 346.109L199.425 336.518C204.218 332.286 208.275 327.205 212.202 322.185L215.422 317.93C215.913 317.261 216.375 316.413 217.109 316.008L217.624 314.929C222.646 309.51 226.174 302.316 229.875 295.957C244.802 270.309 253.258 247.011 259.813 218.406L262.759 204.62C263.29 201.791 263.619 198.913 264.262 196.111L265.745 185.591L266.802 158.671L266.996 158.649C267.202 157.958 267.201 157.209 267.25 156.493L267.723 146.563C269.985 146.375 273.286 145.645 275.486 145.946L277.08 146.387L277.415 145.74C282.414 141.263 286.939 142.266 289.818 132.795C289.696 132.007 289.797 131.185 289.847 130.388L289.952 125.628L289.707 124.054C291.956 124.29 294.088 123.96 296.278 123.471L309.431 118.808C312.152 117.107 313.92 113.629 316.327 111.349C319.105 113.796 322.256 115.987 325.575 117.617C328.547 118.999 331.258 119.171 334.495 119.32C335.598 118.494 337.02 118.622 338.371 118.597L345.227 118.469C347.232 118.396 348.228 118.539 349.717 117.02C348.907 115.251 348.649 113.083 347.905 111.221L346.923 108.706L346.284 107.451C345.297 105.806 344.586 103.87 343.793 102.117L343.98 100.043L352.515 99.9935C355.909 99.9601 361.078 99.0646 363.937 101.333L364.769 102.374C365.017 102.701 365.051 102.748 365.432 102.922C368.313 101.92 371.331 100.985 373.947 99.3923L377.247 97.5773L383.7 94.7203C389.001 92.5194 394.025 89.7783 399.407 87.7411C408.012 84.4846 416.993 82.2681 425.797 79.6068C427.6 78.9236 429.612 78.568 431.495 78.175C433.998 77.7807 437.204 77.6104 439.461 76.4822L441.306 78.2533C450.394 92.081 461.82 104.254 471.026 118C475.576 124.795 479.434 132.062 483.084 139.371L491.167 156.45C497.739 172.167 504.537 192.701 507.624 209.44L510.957 232.75C511.316 235.984 511.282 239.401 512 242.583L512 0L268.919 0L240.083 0L0 0L0 240.83ZM512 270.922C511.57 272.947 511.545 275.083 511.362 277.144L510.372 285.766C509.245 294.661 507.534 303.308 505.358 311.992C503.761 312.815 503.304 314.896 502.073 315.563C501.025 318.068 500.417 320.711 499.684 323.321L496 335.712L492.547 345.81L471.117 389.713L471.705 389.832C468.394 395.62 459.96 408.774 455.265 413.851C444.57 431.748 416.265 455.68 399.103 467.712C371.828 486.836 333.48 503.642 300.355 508.556L286.184 510.844C284.136 511.209 281.903 511.407 279.915 512L512 512L512 270.922ZM0 269.673L0 512L226.844 512C224.973 511.366 222.831 511.239 220.88 510.944L212.099 509.396C195.723 506.25 178.553 501.535 163.176 495.015L145.888 486.721C109.348 468.588 81.9701 445.207 55.5484 414.045C50.591 409.697 47.345 402.687 45.3485 396.501C43.9094 393.442 41.2453 391.034 39.3847 388.212C39.3806 386.323 38.2375 383.677 37.5674 381.889L36.4872 380.206L35.0616 377.664L28.8649 365.339C28.4843 365.062 27.9419 363.654 27.6874 363.165L24.0181 355.917L19.7985 346.475L13.21 326.907C12.8195 325.966 12.5926 324.943 12.3246 323.961C12.1842 321.229 11.1883 318.673 10.562 316.023L9.83487 314.875L8.79205 313.528C8.12547 313.852 7.50681 314.165 6.90131 314.599L5.40467 307.771C2.17441 301.907 1.38213 278.888 0 269.673Z"/>
	<path fill="#8D5050" d="M267.25 156.493L267.723 146.563C269.985 146.375 273.286 145.645 275.486 145.946L277.08 146.387C276.351 147.514 275.841 164.381 276.595 167.255L277.061 168.061C276.417 169.009 276.896 189.237 276.713 192.129L275.345 213.712C273.159 237.248 267.662 260.565 259.866 282.87L247.85 314.116L235.921 335.928L229.983 345.897L222.489 357.136L213.996 368.309L205.955 378.24L191.444 394.733C190.776 395.604 190.45 396.333 189.546 397.009L197.269 396.917L467.607 395.673C469.049 394.426 470.127 391.433 471.117 389.713L471.705 389.832C468.394 395.62 459.96 408.774 455.265 413.851C453.235 414.382 451.116 414.255 449.057 414.259L196.135 414.725L128.07 415.317C122.92 415.317 117.264 415.731 112.196 414.767C104.299 414.713 96.6151 413.63 88.2885 413.629L69.3394 413.691C68.0966 413.725 55.7345 414.038 55.5484 414.098C50.591 409.697 47.345 402.687 45.3485 396.501C47.7359 395.868 50.8617 396.198 53.3446 396.2L119.371 396.194C121.148 395.732 122.994 396.092 124.688 395.369L140.33 384.23L164.352 367.859L165.3 367.172L175.817 358.817C180.799 355.368 185.238 350.409 189.505 346.109L199.425 336.518C204.218 332.286 208.275 327.205 212.202 322.185L215.422 317.93C215.913 317.261 216.375 316.413 217.109 316.008L217.624 314.929C222.646 309.51 226.174 302.316 229.875 295.957C244.802 270.309 253.258 247.011 259.813 218.406L262.759 204.62C263.29 201.791 263.619 198.913 264.262 196.111L265.727 185.591L266.73 158.671L266.996 158.649C267.202 157.958 267.201 157.209 267.25 156.493Z"/>
	<path fill="#454F65" d="M275.485 145.946L277.08 146.387C276.351 147.514 275.841 164.381 276.595 167.255L277.061 168.061C276.417 169.009 276.896 189.237 276.713 192.129L276.374 190.992C275.774 188.968 276.263 174.014 276.471 171.898L276.5 171.625C276.499 170.862 276.649 169.68 276.188 169.124C275.545 170.483 275.397 185.747 275.206 190.042L274.944 189.796L275.485 145.946Z"/>
	<path fill="#88549C" d="M35.0616 377.664L36.4872 380.206C36.2223 381.029 35.9983 381.906 35.6435 382.693L32.8339 378.196L33.5521 378.714C34.7167 379.322 34.6818 379.723 35.0616 377.664Z"/>
	<path fill="#8463BB" d="M36.4872 380.206L37.5674 381.889C38.2375 383.677 39.3806 386.323 39.3847 388.212L35.6435 382.693C35.9983 381.906 36.2223 381.029 36.4872 380.206Z"/>
	<defs>
		<linearGradient id="gradient_0" gradientUnits="userSpaceOnUse" x1="18.058758" y1="348.53281" x2="22.874607" y2="346.48837">
			<stop offset="0" stop-color="#84404A"/>
			<stop offset="1" stop-color="#604F82"/>
		</linearGradient>
	</defs>
	<path fill="url(#gradient_0)" d="M6.90131 314.599C7.50681 314.165 8.12547 313.852 8.79205 313.528L9.83487 314.875L10.562 316.023C11.1883 318.673 12.1842 321.229 12.3246 323.961C12.5926 324.943 12.8195 325.966 13.21 326.907L19.7985 346.475L24.0181 355.917L27.6874 363.165C27.9419 363.654 28.4843 365.062 28.8649 365.339L35.0616 377.664C34.6818 379.723 34.7167 379.322 33.5521 378.714L32.8339 378.196C20.3121 359.371 11.6853 336.529 6.90131 314.599Z"/>
	<defs>
		<linearGradient id="gradient_1" gradientUnits="userSpaceOnUse" x1="492.79553" y1="349.11563" x2="489.3237" y2="347.70135">
			<stop offset="0" stop-color="#554950"/>
			<stop offset="1" stop-color="#295C86"/>
		</linearGradient>
	</defs>
	<path fill="url(#gradient_1)" d="M505.358 311.992C500.619 332.106 491.687 356.958 481.224 375.155C478.35 380.153 474.83 384.971 471.705 389.832L471.117 389.713L492.547 345.81L496 335.712L499.684 323.321C500.417 320.711 501.025 318.068 502.073 315.563C503.304 314.896 503.761 312.815 505.358 311.992Z"/>
	<path fill="#54C6FF" d="M247.85 314.116L502.073 315.436C501.025 318.068 500.417 320.711 499.684 323.321L496 335.712L492.547 345.81L471.117 389.713C470.127 391.433 469.049 394.426 467.607 395.673L197.269 396.919L189.546 397.009C190.45 396.333 190.776 395.604 191.444 394.733L205.955 378.24L213.996 368.309L222.489 357.136L229.983 345.897L235.921 335.928L247.85 314.116Z"/>
	<path fill="#BAEEFD" d="M460.165 360.883L466.465 361.9L466.702 365.096C467.525 371.632 460.6 371.63 458.542 369.12C458.748 367.061 458.767 362.262 460.165 360.883Z"/>
	<path fill="#009AB2" d="M439.461 76.4822L441.306 78.2533C450.394 92.081 461.82 104.254 471.026 118C475.576 124.795 479.434 132.062 483.084 139.371L491.167 156.45C497.739 172.167 504.537 192.701 507.624 209.44L510.957 232.75C511.316 235.984 511.282 239.401 511.91 242.583L512 270.922C511.57 272.947 511.545 275.083 511.362 277.144L510.372 285.766C509.245 294.661 507.534 303.308 505.358 311.992C503.761 312.815 503.304 314.896 502.073 315.563L247.85 314.144L259.866 282.87C267.662 260.565 273.159 237.248 275.345 213.712L276.461 192.129C276.896 189.237 276.417 169.009 277.224 168.061L276.595 167.255C275.841 164.381 276.351 147.514 276.904 146.387L277.415 145.74C282.414 141.263 286.939 142.266 289.818 132.795C289.696 132.007 289.797 131.185 289.841 130.388L289.952 125.628L289.707 124.054C291.956 124.29 294.088 123.96 296.278 123.471L309.431 118.808C312.152 117.107 313.92 113.629 316.327 111.349C319.105 113.796 322.256 115.987 325.575 117.617C328.547 118.999 331.258 119.171 334.495 119.348C335.598 118.494 337.02 118.622 338.371 118.597L345.227 118.469C347.232 118.396 348.228 118.539 349.717 117.119C348.907 115.251 348.649 113.083 347.905 111.221L346.923 108.706L346.284 107.451C345.297 105.806 344.586 103.87 343.793 102.117L343.98 100.069L352.515 99.9935C355.909 99.9601 361.078 99.0646 363.937 101.333L364.769 102.374C365.017 102.701 365.051 102.748 365.432 102.922C368.313 101.92 371.331 100.985 373.947 99.3923L377.247 97.5773L383.7 94.7203C389.001 92.5194 394.025 89.7783 399.407 87.7411C408.012 84.4846 416.993 82.2681 425.797 79.6068C427.6 78.9236 429.612 78.568 431.495 78.175C433.998 77.7807 437.204 77.6104 439.461 76.4822Z"/>
	<path fill="#35A458" d="M439.236 198.584C440.63 197.42 441.804 197.036 443.607 196.872L444.859 199.862C443.132 199.781 440.593 199.666 439.236 198.584Z"/>
	<path fill="#2C4542" d="M346.923 108.706C348.578 111.369 353.666 114.46 353.793 116.875C352.849 117.978 350.839 117.723 349.717 117.02C348.907 115.251 348.649 113.083 347.905 111.221L346.923 108.706Z"/>
	<path fill="#35A458" d="M365.47 236.193L367.842 238.908C368.586 239.682 369.873 240.475 370.241 241.489C367.933 241.519 363.551 242.123 362.145 239.75C362.768 238.42 364.415 237.791 365.234 236.563L365.47 236.193Z"/>
	<path fill="#35A458" d="M343.98 100.069L352.515 99.9935C355.909 99.9601 361.078 99.0646 363.937 101.333L364.769 102.374C365.017 102.701 365.051 102.748 365.432 102.922C361.161 104.453 355.616 104.407 353.125 105.593L353.125 105.25C353.652 104.988 354.484 104.737 355.062 104.562L355.716 104.5C356.176 104.465 356.453 104.341 356.875 104.25L357.376 104.188C356.507 103.301 356.097 103.076 354.88 103.02C353.97 102.149 353.482 101.044 352.125 100.623C350.663 100.169 345.333 100.086 344.321 100.954L344.417 101.244C344.899 102.876 346.415 106.223 346.284 107.451C345.297 105.806 344.586 103.87 343.793 102.117L343.98 100.069Z"/>
	<path fill="#4B4427" d="M309.431 118.808C312.152 117.107 313.92 113.629 316.327 111.349C319.105 113.796 322.256 115.987 325.575 117.617C328.547 118.999 331.258 119.171 334.495 119.348L341.344 120.482C361.25 122.651 386.914 131.086 404.291 141.625C426.377 155.02 448.123 188.493 453.933 214.28C452.751 213.587 451.919 211.864 451.25 210.705L447.736 204.75C446.806 203.177 445.608 201.519 444.859 199.862L443.607 196.872C442.761 193.737 441.035 190.661 439.553 187.78C424.369 158.251 409.46 145.93 380.183 133.777C367.066 128.332 352.992 123.901 338.797 122.392C336.191 122.115 333.568 122.122 330.972 121.775L327.157 121.511C321.499 119.281 315.036 120.92 309.431 118.808Z"/>
	<path fill="#454F65" d="M309.431 118.808C312.152 117.107 313.92 113.629 316.327 111.349C319.105 113.796 322.256 115.987 325.575 117.617C328.547 118.999 331.258 119.171 334.495 119.348L341.344 120.482C337.644 120.944 332.241 120.105 328.591 119.192L327.928 119.004C327.306 118.935 327.872 119.025 327.138 118.765L326.097 119.513C324.608 119.71 323.534 119.255 321.996 119.752L322 120C322.815 120.29 323.515 120.29 324.374 120.29L324.632 120.516C327.056 122.384 336.006 120.712 336.995 121.174L337.248 121.332C339.907 122.708 332.314 121.653 330.972 121.775L327.157 121.511C321.499 119.281 315.036 120.92 309.431 118.808Z"/>
	<path fill="#679900" d="M296.278 123.471L309.431 118.808C315.036 120.92 321.499 119.281 327.157 121.511L330.972 121.775C333.568 122.122 336.191 122.115 338.797 122.392C352.992 123.901 367.066 128.332 380.183 133.777C409.46 145.93 424.369 158.251 439.553 187.78C441.035 190.661 442.761 193.737 443.607 196.872C441.804 197.036 440.63 197.42 439.236 198.584C438.458 199.235 437.589 199.702 436.711 200.201C430.753 199.546 419.057 192.18 414.006 189.082L408.593 186.125C402.126 183.735 396.301 180.57 390.533 176.854C388.625 175.626 386.394 174.167 384.088 173.953L382.903 174.337C380.911 174.826 379.455 174.158 377.767 173.18L365.013 171.352C356.796 169.981 354.299 168.555 347.808 163.236L347.786 163.114C347.159 162.553 346.248 161.555 345.438 161.312C342.664 160.482 341.261 158.074 338.942 156.408C328.724 147.743 317.042 140.648 304.821 135.186L304.756 135.107C301.47 132.904 293.566 130.537 289.841 130.388L289.952 125.628L289.707 124.054C291.956 124.29 294.088 123.96 296.278 123.471Z"/>
	<path fill="#2C5D2C" d="M289.707 124.054C291.956 124.29 294.088 123.96 296.278 123.471L296.643 124.092L289.952 125.628L289.707 124.054Z"/>
	<path fill="#464542" d="M377.767 173.18C380.535 166.19 383.649 167.236 384.088 173.953L382.903 174.337C380.911 174.826 379.455 174.158 377.767 173.18Z"/>
	<path fill="#464542" d="M408.593 186.125C409.184 179.833 414.608 173.856 414.006 189.082L408.593 186.125Z"/>
	<path fill="#464542" d="M296.278 123.471L309.431 118.808C315.036 120.92 321.499 119.281 327.157 121.511C317.253 121.448 306.167 120.791 296.643 124.092L296.278 123.471Z"/>
	<path fill="#679900" d="M289.841 130.388C293.566 130.537 301.47 132.904 304.756 135.107L304.821 135.186C317.042 140.648 328.724 147.743 338.942 156.408C341.261 158.074 342.664 160.482 345.438 161.312C346.248 161.555 347.159 162.553 347.786 163.114L347.808 163.236L347.565 164C348.857 165.636 350.699 166.66 352.209 168.085C375.837 190.374 393.883 231.137 393.234 264.005L387.646 254.48C381.513 248.714 378.713 244.073 370.241 241.489C369.873 240.475 368.586 239.682 367.842 238.908L365.47 236.193C363.41 233.141 361.153 229.739 358.5 227.186C354.818 226.244 350.848 225.587 347.981 222.896C341.571 216.514 342.379 208.092 331.61 203.352C328.803 203.762 326.528 205.292 324.195 206.793C323.654 207.194 323.238 207.694 322.553 207.695L321.437 206.107C319.871 204.592 318.55 203.202 317.503 201.264L315.55 197.929C311.722 191.977 308.985 192.059 305.938 188.424C304.137 186.275 303.853 183.505 300.861 182.853C297.886 183.352 291.368 181.814 293.008 177.7C291.919 176.247 291.774 174.638 290.396 173.277C286.581 172.667 278.93 172.126 277.238 168.061L276.595 167.255C275.841 164.381 276.351 147.514 276.904 146.387L277.415 145.74C282.414 141.263 286.939 142.266 289.818 132.795C289.696 132.007 289.797 131.185 289.841 130.388Z"/>
	<path fill="#397A1B" d="M296.474 176.474C298.8 175.969 299.788 175.824 301.465 177.61C300.676 177.955 300.007 178.124 299.168 177.866L298.875 177.771C297.855 177.455 297.195 177.291 296.474 176.474Z"/>
	<path fill="#4C5820" d="M317.503 201.264C319.092 199.487 320.887 197.636 322.882 196.324C325.577 198.764 325.273 201.679 323.266 204.76L321.437 206.107C319.871 204.592 318.55 203.202 317.503 201.264Z"/>
	<path fill="#4B4427" d="M347.981 222.896C348.518 220.867 349.571 218.964 351.455 217.893L353.127 217.132C356.507 219.204 358.836 223.153 358.5 227.186C354.818 226.244 350.848 225.587 347.981 222.896Z"/>
	<path fill="#397A1B" d="M277.415 145.74L277.528 145.977C279.456 150.101 279.345 154.411 280.204 158.718C280.738 161.39 286.19 164.337 288.121 166.03C289.721 167.434 291.069 169.148 292.754 170.454C293.394 170.95 299.082 173.96 296.304 173.305C295.401 174.384 294.46 175.487 293.878 176.779C293.605 177.115 293.38 177.476 293.008 177.7C291.919 176.247 291.774 174.638 290.396 173.277C286.581 172.667 278.93 172.126 277.238 168.061L276.595 167.255C275.841 164.381 276.351 147.514 276.904 146.387L277.415 145.74Z"/>
	<path fill="#35A458" d="M290.396 173.277C292.233 172.65 294.147 172.68 295.987 173.22L296.304 173.305C295.401 174.384 294.46 175.487 293.878 176.779C293.605 177.115 293.38 177.476 293.008 177.7C291.919 176.247 291.774 174.638 290.396 173.277Z"/>
	<path fill="#4C5820" d="M289.841 130.388C293.566 130.537 301.47 132.904 304.756 135.107L304.821 135.186C317.042 140.648 328.724 147.743 338.942 156.408C341.261 158.074 342.664 160.482 345.438 161.312C346.248 161.555 347.159 162.553 347.786 163.114L347.808 163.236L347.565 164C348.857 165.636 350.699 166.66 352.209 168.085C375.837 190.374 393.883 231.137 393.234 264.005L387.646 254.48C390.399 248.157 382.808 223.999 379.681 217.518C375.126 208.081 365.905 194.189 359.236 185.487L353.387 178.497C346.695 170.198 341.597 166.185 334.143 158.842L333.934 158.633L309.775 142.292C307.57 141.209 305.471 139.837 303.291 138.688L296.352 135.367C294.266 134.366 292.14 133.084 289.818 132.795C289.696 132.007 289.797 131.185 289.841 130.388Z"/>
	<path fill="#2C5D2C" d="M309.775 142.292C314.588 142.856 333.796 156.218 333.934 158.633L309.775 142.292Z"/>
	<path fill="#2E4832" d="M304.821 135.186C317.042 140.648 328.724 147.743 338.942 156.408C337.09 156.514 335.062 154.612 333.749 153.837L315.558 143.051C312.995 141.587 310.467 140.379 308.029 138.676L308.125 138.5C309.034 138.943 309.77 139.49 310.625 140L316.585 143.246C317.265 143.603 318.013 144.086 318.664 144.5L319.5 145C322.611 147.35 328.872 151.234 332.123 152.375L331.899 151.447C330.281 150.144 328.38 148.904 326.651 147.728L321.759 144.476C318.266 142.171 314.333 140.482 310.678 138.447L304.821 135.186Z"/>
	<path fill="#009AB2" d="M0 240.83L0 0L240.083 0L268.919 0L512 0L512 242.583C511.282 239.401 511.316 235.984 510.957 232.75L507.624 209.44C504.537 192.701 497.739 172.167 491.167 156.45L483.084 139.371C479.434 132.062 475.576 124.795 471.026 118C461.82 104.254 450.394 92.081 441.306 78.2533L439.461 76.4822C437.204 77.6104 433.998 77.7807 431.495 78.175C429.612 78.568 427.6 78.9236 425.797 79.6068C416.993 82.2681 408.012 84.4846 399.407 87.7411C394.025 89.7783 389.001 92.5194 383.7 94.7203L377.247 97.5773L373.947 99.3923C371.331 100.985 368.313 101.92 365.432 102.922C365.051 102.748 365.017 102.701 364.769 102.374L363.937 101.333C361.078 99.0646 355.909 99.9601 352.515 99.9935L343.98 100.043L343.793 102.117C344.586 103.87 345.297 105.806 346.284 107.451L346.923 108.706L347.905 111.221C348.649 113.083 348.907 115.251 349.717 117.02C348.228 118.539 347.232 118.396 345.227 118.469L338.371 118.597C337.02 118.622 335.598 118.494 334.495 119.32C331.258 119.171 328.547 118.999 325.575 117.617C322.256 115.987 319.105 113.796 316.327 111.349C313.92 113.629 312.152 117.107 309.431 118.808L296.278 123.471C294.088 123.96 291.956 124.29 289.707 124.054L289.952 125.628L289.847 130.388C289.797 131.185 289.696 132.007 289.818 132.795C286.939 142.266 282.414 141.263 277.415 145.74L277.08 146.387L275.486 145.946C273.286 145.645 269.985 146.375 267.723 146.563L267.25 156.493C267.201 157.209 267.202 157.958 266.996 158.649L266.802 158.671L265.745 185.591L264.262 196.111C263.619 198.913 263.29 201.791 262.759 204.62L259.813 218.406C253.258 247.011 244.802 270.309 229.875 295.957C226.174 302.316 222.646 309.51 217.624 314.929L217.109 316.008C216.375 316.413 215.913 317.261 215.422 317.93L212.202 322.185C208.275 327.205 204.218 332.286 199.425 336.518L189.505 346.109C185.238 350.409 180.799 355.368 175.817 358.817L165.3 367.172L164.352 367.859L140.33 384.23L124.688 395.369C122.994 396.092 121.148 395.732 119.371 395.974L53.3446 396.2C50.8617 396.198 47.7359 395.868 45.3485 396.501C43.9094 393.442 41.2453 391.034 39.3847 388.212C39.3806 386.323 38.2375 383.677 37.5674 381.889L36.4872 380.206L35.0616 377.664L28.8649 365.339C28.4843 365.062 27.9419 363.654 27.6874 363.165L24.0181 355.917L19.7985 346.475L13.21 326.907C12.8195 325.966 12.5926 324.943 12.3246 323.961C12.1842 321.229 11.1883 318.673 10.562 316.023L9.83487 314.875L8.79205 313.528C8.12547 313.852 7.50681 314.165 6.90131 314.599L5.40467 307.771C2.17441 301.907 1.38213 278.888 0.0599438 269.673L0 240.83ZM0.227786 240.83C0.62345 238.272 0.541399 235.541 0.801246 232.95L2.80907 218.619C8.14322 186.772 19.6865 152.761 37.0778 125.202L51.7863 103.611C88.6146 54.9491 137.306 23.1678 196.073 7.75532C210.564 3.95474 225.562 3.2953 240.083 0L0 0L0.227786 240.83ZM268.919 0.0293474C273.134 0.810541 277.552 1.09359 281.824 1.56577L301 4.27467C335.378 10.4621 370.556 24.816 399.152 44.5605L423.975 63.9369L437.701 73.9243L438.643 75.514L439.461 76.4822L441.306 78.2533C450.394 92.081 461.82 104.254 471.026 118C475.576 124.795 479.434 132.062 483.084 139.371L491.167 156.45C497.739 172.167 504.537 192.701 507.624 209.44L510.957 232.75C511.316 235.984 511.282 239.401 512 242.583L512 0L268.919 0.0293474Z"/>
	<path fill="#61B0C3" d="M9.83487 314.875L12.6098 314.299L13.1855 316.652C12.3235 316.365 11.4526 316.198 10.562 316.023L9.83487 314.875Z"/>
	<path fill="#036D7E" d="M5.40467 307.771L5.79406 307.663C7.01379 308.76 8.2312 311.946 8.79205 313.528C8.12547 313.852 7.50681 314.165 6.90131 314.599L5.40467 307.771Z"/>
	<path fill="#7B6305" d="M121.862 115.483L117.578 115.809C120.043 113.141 123.118 111.555 126.395 110.094L126.5 110.877C127.12 111.055 127.184 111.112 127.812 111.003L128.964 110.906C126.731 112.175 123.851 113.85 121.862 115.483Z"/>
	<path fill="#4C5820" d="M226.513 68.8026C230.425 70.3188 228.519 74.1782 227.841 77.3692C223.567 75.3127 224.436 72.4371 226.513 68.8026Z"/>
	<path fill="#4B4427" d="M209.189 54.8549C212.985 54.9172 211.225 59.9455 210.375 62.1884L210.052 63.067C205.906 62.2185 207.482 57.4158 209.189 54.8549Z"/>
	<defs>
		<linearGradient id="gradient_2" gradientUnits="userSpaceOnUse" x1="192.87212" y1="35.480587" x2="193.76978" y2="37.902164">
			<stop offset="0" stop-color="black"/>
			<stop offset="1" stop-color="#332D2C"/>
		</linearGradient>
	</defs>
	<path fill="url(#gradient_2)" d="M179.023 41.7713L178.778 41.2536C182.819 37.4901 196.516 34.9029 201.737 34.4262L200.625 34.9173L200.625 35.75C201.247 35.7825 201.788 35.7946 202.391 35.9699C196.533 36.189 191.411 36.7824 185.929 38.9805C183.645 39.8962 181.435 41.2278 179.023 41.7713Z"/>
	<path fill="#35A458" d="M220.408 161.11C221.261 161.782 222.519 162.861 223.685 162.76L224.473 161.79C224.712 162.153 224.854 162.367 225.199 162.642L224.962 162.784C221.089 165.214 223.547 165.204 217.211 167.439C215.414 163.986 217.938 162.612 220.408 161.11Z"/>
	<defs>
		<linearGradient id="gradient_3" gradientUnits="userSpaceOnUse" x1="191.57835" y1="164.68674" x2="181.34386" y2="156.27126">
			<stop offset="0" stop-color="#392E19"/>
			<stop offset="1" stop-color="#544F2A"/>
		</linearGradient>
	</defs>
	<path fill="url(#gradient_3)" d="M226.793 129.263L227.138 130.05C220.612 132.051 214.283 134.404 208.318 137.763C185.798 150.445 166.321 174.791 159.371 199.489C158.649 202.056 158.409 205.227 157.211 207.593C157.9 199.053 161.597 186.08 165.289 178.75C176.358 156.776 196.751 138.69 220.163 131.033L226.793 129.263Z"/>
	<defs>
		<linearGradient id="gradient_4" gradientUnits="userSpaceOnUse" x1="272.47729" y1="23.790468" x2="291.82108" y2="155.05542">
			<stop offset="0" stop-color="#41401F"/>
			<stop offset="1" stop-color="#604846"/>
		</linearGradient>
	</defs>
	<path fill="url(#gradient_4)" d="M201.737 34.4262C223.437 32.7062 253.332 37.1466 270.294 51.875C284.459 64.175 285.353 86.2887 282.03 103.573C281.844 104.537 279.985 110.979 282.284 110.765C285.218 110.491 293.918 101.047 296.253 98.9134C319.36 77.8049 355.363 63.3603 387.125 65.8325C394.641 66.4174 412.369 70.135 419.424 73.1195L427.537 75.0043C430.932 75.9577 434.527 75.3629 438 75.9138L438.643 75.514L439.461 76.4822C437.204 77.6104 433.998 77.7807 431.495 78.175C429.267 76.2622 426.634 77.2358 423.889 77.0719L416.942 74.9481L406.511 72.122C397.189 69.712 388.404 68.2247 378.812 68.2301C347.398 68.2476 320.099 81.1789 296.973 101.375L287.675 109.738C286.705 110.61 285.707 112.02 284.523 112.539C284.971 114.66 288.612 119.205 289.707 124.054L289.952 125.628L289.847 130.388C289.797 131.185 289.696 132.007 289.818 132.795C286.939 142.266 282.414 141.263 277.415 145.74L277.08 146.387L275.486 145.946C273.286 145.645 269.985 146.375 267.723 146.563L267.25 156.493C267.201 157.209 267.202 157.958 266.996 158.649L266.802 158.671C266.746 154.918 266.923 151.062 266.443 147.338L259.488 145.777L259.37 145.125C255.854 142.325 252.919 139.186 252.015 134.677L251.826 131.458L252.651 130.052C251.383 120.889 254.231 115.98 262.42 111.122L262.287 110.629C262.749 110.383 263.036 110.322 263.326 109.875L254.598 106.25C246.536 102.768 238.732 99.5089 230.207 97.253C206.796 91.0579 177.957 91.338 155.443 99.7638L132.81 109.326C131.564 109.822 130.13 110.257 128.964 110.906L127.812 111.003C127.184 111.112 127.12 111.055 126.5 110.877L126.395 110.094C126.53 109.921 126.444 110.002 126.725 109.86L139.141 104.01C145.168 101.145 151.039 98.2099 157.378 96.0688C184.594 86.8764 214.742 88.6867 241.717 97.7023L251.223 101.134C263.019 106.543 266.329 106.063 278.664 108.703C284.178 94.0714 279.667 66.0867 268.554 55.035C253.478 40.0433 223.443 36.0901 202.391 36.0222C201.788 35.7946 201.247 35.7825 200.625 35.75L200.625 34.9173L201.737 34.4262Z"/>
	<path fill="#8D5050" d="M262.42 111.122C268.255 108.52 273.165 109.212 278.476 112.2L278.615 112.396C281.518 115.997 282.672 116.317 285.425 121.158C291.668 132.137 284.689 139.966 274.125 143.054L273.723 143.176C270.641 144.084 266.946 143.999 263.822 143.375L263.379 143.291C256.826 141.962 254.357 136.272 252.806 130.5L252.651 130.052C251.383 120.889 254.231 115.98 262.42 111.122Z"/>
	<path fill="#679900" d="M227.138 130.05C235.017 127.669 243.443 125.433 251.753 126.301C251.717 128.022 251.638 129.743 251.826 131.458L252.015 134.677C252.919 139.186 255.854 142.325 259.37 145.125L259.488 145.777C255.796 145.61 253.109 147.04 249.646 148.144L241.836 150.378C234.727 155.456 234.72 158.117 225.199 162.642C224.854 162.367 224.712 162.153 224.473 161.79L223.685 162.76C222.519 162.861 221.261 161.782 220.408 161.11C217.938 162.612 215.414 163.986 217.211 167.439C215.479 168.172 213.76 168.967 211.918 169.383L210.003 170.019C204.017 172.052 200.465 172.026 196.961 177.022C195.249 185.366 190.647 184.47 184.121 188.075C176.07 192.522 161.461 202.722 156.77 210.226C155.714 211.916 156.967 208.025 157.211 207.593C158.409 205.227 158.649 202.056 159.371 199.489C166.321 174.791 185.798 150.445 208.318 137.763C214.283 134.404 220.612 132.051 227.138 130.05Z"/>
	<path fill="#464542" d="M215.583 155.857L215.028 154.625C217.771 150.462 223.004 154.922 224.289 158.75L224.38 159.018C224.657 159.898 224.53 160.882 224.473 161.79L223.685 162.76C222.519 162.861 221.261 161.782 220.408 161.11C218.647 159.534 217.103 157.661 215.583 155.857Z"/>
	<defs>
		<linearGradient id="gradient_5" gradientUnits="userSpaceOnUse" x1="194.38467" y1="172.16757" x2="207.41823" y2="169.58698">
			<stop offset="0" stop-color="#613F3E"/>
			<stop offset="1" stop-color="#595751"/>
		</linearGradient>
	</defs>
	<path fill="url(#gradient_5)" d="M196.961 177.022C192.986 173.113 192.908 169.121 198.031 166.635C200.213 167.21 202.169 168.513 204.333 169.122C206.213 169.652 208.105 169.354 210.003 170.019C204.017 172.052 200.465 172.026 196.961 177.022Z"/>
	<path fill="#679900" d="M128.964 110.906C130.13 110.257 131.564 109.822 132.81 109.326L155.443 99.7638C177.957 91.338 206.796 91.0579 230.207 97.253C238.732 99.5089 246.536 102.768 254.598 106.25L263.326 109.875C263.036 110.322 262.749 110.383 262.287 110.629L262.42 111.122C254.231 115.98 251.383 120.889 252.651 130.052L251.826 131.458C251.638 129.743 251.717 128.022 251.753 126.301C243.443 125.433 235.017 127.669 227.138 130.05L226.793 129.263L227.044 129.17C228.126 128.761 229.082 128.432 229.569 127.347L229.375 126.865C226.676 125.89 222.599 126.431 219.698 126.523L194.723 126.411C190.822 126.279 182.564 126.065 179.477 125.295L162.683 123.387C159.608 122.34 157.205 118.906 154.156 118.42C149.754 118.878 145.069 117.815 140.69 117.305L121.862 115.516C123.851 113.85 126.731 112.175 128.964 110.906Z"/>
	<path fill="#2E4832" d="M154.156 118.42C159.453 115.236 164.517 115.972 162.683 123.387C159.608 122.34 157.205 118.906 154.156 118.42Z"/>
	<path fill="#2C4542" d="M179.477 125.295C183.617 125.124 187.986 125.87 192.189 125.898C203.489 125.974 215 126.4 226.274 125.751L238.964 124.392C243.213 124.008 247.486 123.875 251.7 123.171L253.344 119.087C254.764 115.957 258.812 111.868 262.065 110.701L262.287 110.629L262.42 111.122C254.231 115.98 251.383 120.889 252.651 130.052L251.826 131.458C251.638 129.743 251.717 128.022 251.753 126.301C243.443 125.433 235.017 127.669 227.138 130.05L226.793 129.263L227.044 129.17C228.126 128.761 229.082 128.432 229.569 127.347L229.375 126.865C226.676 125.89 222.599 126.431 219.698 126.523L194.723 126.411C190.822 126.279 182.564 126.065 179.477 125.295Z"/>
	<path fill="#679900" d="M202.391 35.9731C223.443 36.0901 253.478 40.0433 268.554 55.035C279.667 66.0867 284.178 94.0714 278.664 108.703C266.329 106.063 263.019 106.543 251.223 101.134L241.717 97.7023C244.003 97.037 243.236 98.9791 245.375 97.3775L243.789 94.1684C243.495 93.5432 243.488 92.8563 243.421 92.1757L243.483 92.0063C243.779 90.8901 244.456 90.1459 245.151 89.2409C239.666 89.147 241.74 85.8436 244.111 83.0915C235.968 76.9664 236.322 79.3158 228.18 77.4491L227.841 77.3692C228.519 74.1782 230.425 70.3188 226.513 68.8026C221.027 65.7367 216.275 64.0815 210.052 63.067L210.375 62.1884C211.225 59.9455 212.985 54.9172 209.189 54.8549C199.179 54.0367 186.437 47.9626 179.023 41.7713C181.435 41.2278 183.645 39.8962 185.929 38.9805C191.411 36.7824 196.533 36.189 202.391 35.9731Z"/>
	<path fill="#35A458" d="M243.421 92.1757C246.4 98.0458 246.9 97.0537 251.223 101.134L241.717 97.7023C244.003 97.037 243.236 98.9791 245.375 97.3775L243.789 94.1684C243.495 93.5432 243.488 92.8563 243.421 92.1757Z"/>
	<path fill="#454F65" d="M244.111 83.0915C251.881 78.1129 254.709 82.4371 246.677 88.1283C246.219 88.4527 245.497 88.8219 245.151 89.2409C239.666 89.147 241.74 85.8436 244.111 83.0915Z"/>
	<path fill="#679900" d="M284.523 112.539C285.707 112.02 286.705 110.61 287.675 109.738L296.973 101.375C320.099 81.1789 347.398 68.2476 378.812 68.2301C388.404 68.2247 397.189 69.712 406.511 72.122L416.942 74.9481L423.889 77.0719C426.634 77.2358 429.267 76.2622 431.495 78.175C429.612 78.568 427.6 78.9236 425.797 79.6068C416.993 82.2681 408.012 84.4846 399.407 87.7411C394.025 89.7783 389.001 92.5194 383.7 94.7203L377.247 97.5773L373.947 99.3923C371.331 100.985 368.313 101.92 365.432 102.922C365.051 102.748 365.017 102.701 364.769 102.374L363.937 101.333C361.078 99.0646 355.909 99.9601 352.515 99.9935L343.98 100.043L343.793 102.117C344.586 103.87 345.297 105.806 346.284 107.451L346.923 108.706L347.905 111.221C348.649 113.083 348.907 115.251 349.717 117.02C348.228 118.539 347.232 118.396 345.227 118.469L338.371 118.597C337.02 118.622 335.598 118.494 334.495 119.32C331.258 119.171 328.547 118.999 325.575 117.617C322.256 115.987 319.105 113.796 316.327 111.349C313.92 113.629 312.152 117.107 309.431 118.808L296.278 123.471C294.088 123.96 291.956 124.29 289.707 124.054C288.612 119.205 284.971 114.66 284.523 112.539Z"/>
	<path fill="#3DB932" d="M343.68 99.6804C345.711 99.8458 348.48 98.8917 350.25 99.3775C353.03 100.141 356.246 98.5896 359.25 99.3775L361.375 99.8775C363.716 100.911 365.757 98.4139 368.167 100.672C368.998 101.45 369.903 100.837 370.816 100.38L373.947 99.3923C371.331 100.985 368.313 101.92 365.432 102.922C365.051 102.748 365.017 102.701 364.769 102.374L363.937 101.333C361.078 99.0646 355.909 99.9601 352.515 99.9935L343.98 100.043L343.68 99.6804Z"/>
	<path fill="#35A458" d="M347.905 111.221C348.649 113.083 348.907 115.251 349.717 117.02C348.228 118.539 347.232 118.396 345.227 118.469L338.371 118.597C337.02 118.622 335.598 118.494 334.495 119.32C331.258 119.171 328.547 118.999 325.575 117.617C326.922 116.627 329.056 117.614 333.596 114.103L333.874 114.183C333.087 114.906 331.001 116.181 330.628 117.012C336.299 118.772 341.833 117.953 347.812 117.645L348.875 116.75C348.889 116.368 348.917 116.098 348.779 115.734L348.75 115C348.311 114.036 347.829 112.532 347.888 111.474L347.905 111.221Z"/>
	<path fill="#2C5D2C" d="M377.247 97.5773C375.384 95.8954 374.8 90.8656 374.591 88.5663C375.534 88.0088 376.5 87.64 377.518 87.2514L379.064 87.9385C381.786 89.4112 382.805 91.9302 383.7 94.7203L377.247 97.5773Z"/>
	<path fill="#464542" d="M343.793 102.117C341.763 100.151 338.556 97.7212 337.959 94.8827C336.663 88.7213 343.43 85.7986 348.434 84.9039C342.387 90.301 341.291 92.2767 343.68 99.6804L343.98 100.069L343.793 102.117Z"/>
	<path fill="#54C6FF" d="M12.6098 314.299L217.624 314.866L217.109 316.008C216.375 316.413 215.913 317.261 215.422 317.93L212.202 322.185C208.275 327.205 204.218 332.286 199.425 336.518L189.505 346.109C185.238 350.409 180.799 355.368 175.817 358.817L165.3 367.172L164.352 367.859L140.33 384.23L124.688 395.369C122.994 396.092 121.148 395.732 119.371 395.974L53.3446 396.2C50.8617 396.198 47.7359 395.868 45.3485 396.501C43.9094 393.442 41.2453 391.034 39.3847 388.212C39.3806 386.323 38.2375 383.677 37.5674 381.889L36.4872 380.206L35.0616 377.664L28.8649 365.339C28.4843 365.062 27.9419 363.654 27.6874 363.165L24.0181 355.917L19.7985 346.475L13.21 326.907C12.8195 325.966 12.5926 324.943 12.3246 323.961C12.1842 321.229 11.1883 318.673 10.562 316.023C11.4526 316.198 12.3235 316.365 13.1855 316.652L12.6098 314.299Z"/>
	<path fill="#5F84A4" d="M10.562 316.023C11.4526 316.198 12.3235 316.365 13.1855 316.652C13.5747 317.389 14.4462 323.468 12.634 323.393L12.3246 323.961C12.1842 321.229 11.1883 318.673 10.562 316.023Z"/>
</svg>
