<?xml version="1.0" encoding="utf-8" ?>
<svg xmlns="http://www.w3.org/2000/svg" xmlns:xlink="http://www.w3.org/1999/xlink" width="512" height="512">
	<path fill="#00537A" d="M250.107 12.3215L250.301 12.3371C335.23 11.1186 414.278 53.0331 459.815 124.949C506.118 198.073 510.207 292.449 468.496 368.746C465.012 375.118 461.086 381.145 457.125 387.222L447.203 402.06C405.219 459.063 332.157 496.345 261.671 496.915L243.238 496.753C228.014 495.875 212.442 493.507 197.683 489.668L177.71 483.451C132.205 467.888 90.3177 437.687 61.9958 398.75L49.3811 379.374C44.5679 371.159 40.3781 362.526 36.5148 353.828L27.5594 331.681C21.312 313.789 15.2619 287.776 14.5185 268.657C11.5042 191.134 42.7625 117.015 103.085 67.125C144.785 32.6366 196.331 14.5039 250.107 12.3215Z"/>
	<path fill="#C9C6A3" d="M165.365 324.623L169.605 326.32C167.907 326.845 166.466 327.332 164.964 328.299L164.875 327.866C164.616 326.65 165.115 325.8 165.365 324.623Z"/>
	<path fill="#F5A201" d="M275.122 331.625L275.049 332.69C274.068 337.237 274.53 342.453 274.522 347.106L274.426 375.609C274.402 377.137 274.468 378.879 273.738 380.265L273.585 380.543C271.324 384.983 265.299 384.928 260.922 385.023L261.241 359.041C261.239 353.066 261.516 346.847 260.66 340.923L260.596 340.502C266.602 338.458 270.697 336.23 275.122 331.625Z"/>
	<path fill="#F5A201" d="M236.464 333.292C241.522 337.831 245.092 338.624 251.075 340.629L251.189 385.375L250.744 385.727C246.073 385.32 237.333 383.128 237.303 377.321L237.299 351.162C237.306 345.376 237.61 339.321 236.53 333.618L236.464 333.292Z"/>
	<path fill="#FFD35B" d="M253.378 77.597C267.652 74.7886 283.122 88.127 285.807 102.029C289.065 118.893 275.73 134.806 259.498 137.939L258.474 138.086C251.083 138.97 242.239 135.063 236.576 130.542C215.69 113.867 228.203 80.1431 253.378 77.597Z"/>
	<path fill="#FFBA42" d="M436.395 211.785L437.738 211.711C442.943 211.864 441.65 220.658 441.644 223.875L441.587 374.373C441.418 377.807 432.97 381.965 432.213 376.117C431.816 373.047 431.796 370.017 431.785 366.929L431.727 343.08C431.714 340.524 431.746 337.958 431.464 335.414C430.955 330.806 430.078 332.562 425.641 332.701L374.37 332.704C369.159 332.624 364.155 331.772 358.976 331.769L358.765 372C358.644 376.759 353.685 380.411 350.117 376.039C349.124 373.743 349.439 370.734 349.436 368.274L349.373 332.59C349.326 330.291 348.759 328.167 348.722 325.855C355.377 315.97 358.764 325.299 365.057 325.505C369.05 325.636 372.831 323.583 376.75 323.444L431.958 323.494L432.182 318.125C432.115 312.629 430.887 312.974 426.093 312.974L383.87 313.132C383.302 310.485 383.751 306.819 383.751 304.057L423.618 304.042C434.592 304.138 431.826 302.651 431.779 291.485L431.738 221.679C431.73 216.794 431.258 213.861 436.395 211.785Z"/>
	<path fill="#FFD35B" d="M163.681 340.856C163.319 343.78 163.504 346.858 163.502 349.798L163.488 366.21C163.484 368.628 163.915 372.354 163.118 374.628L163.024 374.875C162.355 376.69 160.283 378.749 158.14 378.119L157.875 378.032C152.828 376.418 153.85 371.974 153.816 367.03L153.773 333.047L80.0606 333.333C79.7968 334.224 79.9226 335.301 79.924 336.23L79.8941 372.235C79.8582 374.918 80.2132 377.127 77.2955 378.322C71.807 380.57 70.6214 375.731 70.5772 371.811L70.5123 229.08C70.5118 224.946 70.24 220.613 70.5747 216.499C70.9689 211.656 79.6156 211.241 80.3873 216.224C80.6781 218.101 80.4039 220.372 80.3994 222.292L80.3526 280.004C80.3527 287.809 79.901 295.89 80.5761 303.651C81.3749 304.087 82.9135 303.909 83.8367 303.921L128.556 303.996L128.483 312.78C117.438 313.442 106.123 312.967 95.0464 312.957C90.4166 312.953 84.8078 312.351 80.3202 313.473C79.1169 315.887 79.263 319.666 79.875 322.239C82.3033 324.875 96.4135 323.521 100.044 323.517L127.75 323.483C131.99 323.399 134.649 323.101 138.898 323.961C147.657 325.733 152.458 324.913 159.581 320.182L165.365 324.623C165.115 325.8 164.616 326.65 164.875 327.866L164.964 328.299C162.862 330.992 163.859 334.491 163.49 337.707L163.681 340.856Z"/>
	<path fill="#FFD35B" d="M254.174 148.883C290.855 147.743 326.429 170.905 329.608 209.79C329.907 213.455 329.785 217.204 329.79 220.883L329.793 238.149C329.557 238.294 313.313 238.08 311.508 238.077L311.508 217.264C311.505 214.14 311.826 210.617 311.379 207.53C310.88 204.083 304.111 203.705 302.875 206.872C301.334 210.82 303.96 235.674 302.552 238.126L257.625 238.065L209.334 238.164C209.617 235.688 209.485 233.108 209.499 230.613L209.634 212.605C209.734 210.953 210.071 209.125 209.494 207.526C208.47 204.684 202.924 202.385 201.529 205.933L201.42 206.232C200.857 207.742 201.007 209.381 201.016 210.967L201.119 238.174L182.792 237.969L182.645 220.894C182.643 216.786 182.458 212.547 182.793 208.453C185.793 171.699 219.31 150.175 254.174 148.883Z"/>
	<path fill="#F5A201" d="M159.586 247.858L346.011 247.808C351.414 247.82 357.631 247.368 362.786 249.074L363.25 249.23C372.026 252.114 374.435 259.285 374.404 267.5L373.814 312.439C370.27 314.703 357.557 313.251 358.069 307.452L359.389 276.394C359.397 273.788 360.078 269.91 357.138 268.545C354.533 267.334 350.613 268.668 349.77 271.533C349.142 273.668 349.487 276.829 349.482 279.088L349.477 303.74C349.462 304.929 349.476 306.654 348.937 307.739L348.799 308C344.019 317.304 332.028 320.235 323.397 314.453C317.211 310.308 316.744 307.47 311.184 314.868C308.12 319.554 305.192 324.823 299.706 327C292.299 329.94 284.803 326.15 280.062 320.394C275.656 315.045 275.117 311.134 269.293 320.39C262.24 331.601 250.576 333.408 241.271 323.104C239.738 321.406 237.293 316.987 235.25 316.317C226.693 313.512 225.509 329.008 213.008 326.924C199.915 324.742 200.382 309.369 193.912 307.375C190.926 306.455 188.064 310.856 186.246 312.63C179.444 319.266 166.63 316.529 162.689 307.934C160.736 303.675 161.517 297.242 161.512 292.614L161.49 277.012C161.482 274.025 162.254 267.835 158.164 267.051C150.165 265.516 152.259 275.531 152.28 280.087L152.336 301.881C152.359 304.358 152.744 307.421 152.365 309.83C151.556 314.97 137.87 315.488 137.285 309.418C136.845 304.858 137.242 299.826 137.24 295.219L137.252 276.323C137.258 271.882 136.756 266.213 137.974 261.928L138.077 261.579C140.021 254.503 146.055 249.707 153.254 248.51L159.586 247.858Z"/>
</svg>
