<?xml version="1.0" encoding="utf-8" ?>
<svg xmlns="http://www.w3.org/2000/svg" xmlns:xlink="http://www.w3.org/1999/xlink" width="512" height="512">
	<path fill="#1C386F" d="M247.713 2.65093C320.29 -1.07488 378.383 53.8369 385.324 124.374C386.017 131.416 385.73 138.619 385.729 145.689L385.726 195.07C385.731 225.506 394.661 237.421 417.974 253.475C430.179 261.88 439.379 272.907 434.874 289.196C430.745 304.123 419.102 314.3 411.281 327.11C420.24 328.502 441.52 334.108 449.5 337.264C474.401 347.113 480.351 365.636 486.39 388.594L505.45 456.265C506.875 461.725 508.912 467.455 509.806 473.004C510.274 475.912 510.579 490.374 509.527 492.832C506.491 499.919 501.383 505.624 494.14 508.558L493.503 508.813C491.998 509.575 490.336 509.796 488.657 509.883L263.875 509.978L29.2582 509.976C26.2384 509.973 22.2344 510.459 19.3696 509.412L19 509.27C12.0774 506.696 3.65289 498.286 2.27946 490.68C0.50011 480.827 3.87404 467.823 6.28038 458.428L23.9437 393.88C33.6554 356.862 40.0403 342.028 80.9917 331.875L94.8569 328.364C97.0244 327.745 99.0988 327.287 101.151 326.331L88.9162 310.582C83.4028 303.107 77.2354 295.154 76.5675 285.525C75.7033 273.068 80.1613 263.317 90.2549 256.037C104.649 245.655 114.586 241.422 122.563 223.255C127.447 212.134 126.508 200.566 126.507 188.727L126.497 147.956C126.495 140.535 126.075 132.824 126.733 125.44C132.481 60.9185 181.684 7.17515 247.713 2.65093Z"/>
	<path fill="#04ADC7" d="M180.405 322.41C183.137 321.641 185.21 325.121 186.813 326.821L202.502 344.544C203.761 346.076 205.843 349.631 207.519 350.478L200.438 350.631L197.596 350.485C192.349 350.173 188.914 343.432 185.961 339.754L179.466 331.633C177.279 328.625 175.409 325.435 172.906 322.664C175.408 322.837 177.909 322.589 180.405 322.41Z"/>
	<path fill="#04ADC7" d="M331.267 322.744C332.851 322.62 334.308 323.048 335.834 323.421C333.12 329.549 329.624 335.357 326.251 341.141C318.938 353.68 321.372 350.575 306.44 350.708L302.027 351.563L323.301 329.586C325.702 327.129 328.21 324.356 331.267 322.744Z"/>
	<path fill="#F1DCA7" d="M298.426 263.424L298.287 277.173C298.271 294.956 298.627 307.402 316.118 317.453L256.402 384.805L226.797 352.896L202.473 325.258C200.123 322.666 197.115 320.496 194.909 317.883C211.729 310.227 214.686 295.323 214.706 278.094L214.929 264.375C227.596 276.564 246.334 283.867 264 281.309C276.983 279.43 288.758 271.891 298.426 263.424Z"/>
	<path fill="#F1DCA7" d="M267.944 99.3516C272.542 123.481 303.17 137.216 324.588 141.579C336.01 143.906 346.195 140.946 347.841 156.412C348.493 162.534 349.091 173.836 347.352 179.593L347.265 179.875C344.816 188.394 336.319 188.858 328.875 189.5C319.503 190.308 321.101 198.727 319.165 206.753C311.951 236.657 280.133 275.762 246.008 267.444C218.343 260.145 197.849 230.131 192.348 203.073C188.902 186.117 190.573 191.587 175.861 188.39C163.274 185.654 164.201 176.938 164.212 167.005C164.233 146.324 165.834 144.262 186.103 142.359C215.344 139.613 248.83 121.123 267.944 99.3516Z"/>
	<path fill="#FFCB69" d="M159.824 325.375L160.387 325.243C161.444 325.564 163.34 329.265 164.094 330.408L179.524 354.601C185.868 366.01 188.813 363.24 201.181 363.252C207.097 363.257 213.166 363.525 219.057 362.98C220.86 364.133 222.337 366.101 223.769 367.682L232.309 377.331C235.127 380.681 237.79 383.713 240.833 386.868L247.588 394.375C251.444 398.422 249.829 402.745 249.829 408.63L249.776 498.226C248.505 498.418 247.079 498.277 245.784 498.268L110.753 498.189L110.756 447.97C110.753 442.603 111.593 435.802 104.82 434.095L104.545 434.028C97.8815 434.481 98.2908 440.328 98.2844 445.481L98.2638 498.223L36.4065 498.235C18.3784 498.494 11.6458 493.325 15.1819 475.804C17.6215 463.716 21.7942 452.007 24.9875 440.102L40.233 383.25C47.5238 357.795 58.7648 350.504 82.591 344.498L159.824 325.375Z"/>
	<path fill="#FFCB69" d="M349.826 325.163L412.523 340.358C447.561 349.235 462.602 349.028 473.45 386.243L496.49 470.094C497.54 474.34 498.83 478.971 498.853 483.371C498.888 490.305 492.703 496.689 486.074 497.894C483.226 498.412 480.192 498.215 477.308 498.218L414.285 498.218L414.28 445.111C414.272 440.856 414.846 437.017 410.416 434.747L410.155 434.617C400.689 432.235 401.658 442.771 401.751 448.313L401.757 498.286L262.249 498.218L262.252 409.866C262.254 394.308 259.404 399.7 269.375 389.149L287.219 369.08C288.374 367.706 289.67 366.309 290.516 364.718L290.88 364.045C292.055 362.35 294.742 363.251 296.515 363.252L316.922 363.247C332.453 363.228 328.705 362.297 336.251 349L349.826 325.163Z"/>
	<defs>
		<linearGradient id="gradient_0" gradientUnits="userSpaceOnUse" x1="256.62872" y1="324.74979" x2="251.16493" y2="15.755925">
			<stop offset="0" stop-color="#768066"/>
			<stop offset="1" stop-color="#A57D67"/>
		</linearGradient>
	</defs>
	<path fill="url(#gradient_0)" d="M254.686 15.4349C256.876 15.0246 259.662 15.3315 261.891 15.409C315.326 17.2653 365.605 63.6646 372.193 116.677C373.361 126.078 373.07 135.458 373.053 144.905L373.044 180.276C373.096 215.195 375.243 239.164 406.249 260.551C412.522 264.878 421.037 269.941 422.591 278.045C425.48 293.105 406.256 311.19 398.321 322.944C390.313 320.789 382.108 319.488 374 317.768L346.819 311.694C329.735 308.242 312.129 309.511 310.667 287.792C310.094 279.29 310.492 270.558 310.506 262.033L310.524 254.684C310.537 252.823 310.156 251.236 311.462 249.758C319.974 240.126 326.358 227.654 329.732 215.285L332.89 202.535C356.849 198.746 360.79 186.429 360.8 164.179C360.807 150.16 357.686 134.833 341.739 131.336C336.7 130.231 331.412 130.264 326.321 129.403C305.034 125.802 286.348 113.326 277.872 92.9536C277.614 92.3331 276.796 90.7172 276.807 90.1037C276.857 87.2333 294.202 68.0769 296.984 61.273C295.444 56.8317 292.719 54.3486 288.069 53.1367C286.618 54.9511 285.474 57.1722 284.173 59.1184C260.138 92.5722 233.319 119.754 191.106 128.523L181.674 130.117C161.369 132.573 153.139 137.999 152.063 159.916L151.951 170.539C151.962 178.358 151.891 185.744 157.517 191.847C162.914 197.7 171.786 201.489 179.695 201.781C182.562 216.765 187.505 232.248 196.98 244.462C198.368 246.251 201.565 248.917 201.688 251.278L201.896 272.843C201.905 284.905 203.396 300.309 190.01 306.317C181.424 310.171 171.06 311.274 161.871 313.104L113.815 322.893L92.93 294.55C89.7577 289.228 87.9601 283.233 89.6266 277.043L89.7456 276.625C91.3657 270.728 95.2193 268.541 100.117 265.515L107.425 260.659C124.857 248.154 136.344 230.315 138.763 208.637C139.617 200.978 139.242 193.077 139.238 185.377L139.232 135.141C139.242 131.612 139.206 127.866 139.804 124.391L142.91 105.724C154.77 54.5615 202.096 16.1019 254.686 15.4349Z"/>
</svg>
