<?xml version="1.0" encoding="utf-8" ?>
<svg xmlns="http://www.w3.org/2000/svg" xmlns:xlink="http://www.w3.org/1999/xlink" width="512" height="512">
	<path fill="#252B50" d="M249.114 17.5585C251.595 17.5531 253.846 18.3131 256.198 19.0174L328.5 40.5004C339.837 43.9083 352.874 45.948 362.448 53.3974C375.017 63.1776 382.983 78.4701 383.821 94.3607L383.907 158.47C383.907 166.653 383.51 175.093 384.165 183.244C387.656 188.345 391.69 188.617 391.724 197.28L391.744 221.315C391.738 229.497 393.413 238.563 386.996 244.875C381.32 250.459 372.103 249.363 364.756 249.203C360.897 249.119 359.773 247.542 359.421 252.001C357.966 270.412 349.406 287.106 336.375 300.11C326.138 310.326 327.183 305.23 327.369 318.716L327.456 339.699C327.458 340.595 330.003 340.888 330.74 341.184C333.197 342.171 335.57 343.428 337.976 344.534L433.25 385.499C476.348 403.645 501.133 429.449 501.307 477.35C501.316 480.05 501.748 483.582 500.922 486.148L500.801 486.5C498.918 492.536 491.674 490.959 486.766 490.961L263.375 490.951L24.01 490.939C10.8843 490.923 11.0268 488.506 11.013 477.086C11.0079 472.932 10.8688 468.685 11.2014 464.543C13.2619 438.883 28.2273 416.275 48.797 401.301C57.41 395.031 67.0119 390.648 76.7748 386.497L172.944 345.051C175.991 343.769 179.002 342.12 182.091 341.001L183.497 340.443C184.937 339.602 184.243 337.695 184.243 336.286L184.275 319.228C184.295 316.225 183.944 312.367 184.756 309.502L184.891 309.06C184.009 307.997 182.803 307.151 181.75 306.261C164.57 291.739 154.07 271.649 152.191 249.228L134.596 249.156C120.861 248.002 120.595 236.114 120.565 225.176L120.453 198.349C120.418 196.576 120.24 194.63 120.51 192.875C121.656 185.428 127.593 186.97 127.553 180.61L127.472 128.91C127.463 122.904 126.948 116.666 127.303 110.694C128.439 91.5854 142.688 73.1693 158.504 63.6017C183.138 48.6998 214.41 48.2923 236.576 28.4717C240.595 24.8781 244.276 19.9629 249.114 17.5585Z"/>
	<path fill="#FFB4A2" d="M368.653 193.722L374.563 193.716C382.087 193.901 379.435 200.885 379.446 207.622L379.445 231.535C379.366 238.734 377.6 237.078 371.029 236.959L360.1 236.62L360.155 194.336C361.964 193.35 366.557 193.708 368.653 193.722Z"/>
	<path fill="#FFB4A2" d="M140.648 193.604C144.288 193.41 148.653 193.532 152.164 194.473L152.089 236.853L144.812 236.949L144.628 237.089C129.366 237.519 132.772 235.856 132.767 221.854L132.769 195.655C134.862 194.07 138.116 193.808 140.648 193.604Z"/>
	<path fill="#6D6875" d="M352.503 62.291C369.762 73.2638 372.224 89.3761 372.248 107.984L372.28 181.633L363.916 181.598C362.704 181.59 361.229 181.751 360.093 181.385L360.111 165.411C360.109 151.603 359.014 144.133 352.148 132.456L352.503 62.291Z"/>
	<path fill="#6D6875" d="M165.545 73.4635L166.039 121.377C166.058 122.511 165.917 124.167 166.345 125.183C155.314 137.433 152.06 145.219 152.059 162.576L151.927 181.842C138.07 180.298 139.774 186.489 139.754 171.812L139.719 131.234C139.714 121.454 139.217 111.787 141.913 102.266C145.163 90.7853 155.051 79.3307 165.545 73.4635Z"/>
	<path fill="#FFCDB2" d="M315.419 319.993L315.505 336.983C315.552 354.451 319.922 349.152 332.908 355.453C321.68 381.4 295.189 403.469 266.922 407.062C241.005 410.356 214.016 400.852 196.676 381.107C189.933 373.312 184.795 364.391 180.033 355.295C185.309 352.74 191.719 351.745 196.248 347.906C196.559 347.214 196.451 346.43 196.45 345.687L196.6 320.754C197.71 322.559 201.212 325.199 202.888 326.776L209.383 332.429C228.134 347.762 243.68 350.762 268.278 348.233C284.021 346.614 305.244 332.561 315.419 319.993Z"/>
	<path fill="#B5838D" d="M165.784 73.4635C167.069 72.2442 169.108 71.4207 170.872 70.6147L206.388 58.1288C225.487 51.505 237.495 45.0407 251.236 30.6923L251.601 30.7228C252.866 30.9491 254.194 31.4487 255.446 31.7751L341.868 57.272L349.403 60.2304C350.553 60.7365 351.82 61.1824 352.507 62.291L352.415 132.456C337.258 114.115 315.344 112.95 296.854 126.078C293.218 128.66 289.987 131.815 285.997 133.878C277.094 138.483 265.342 136.698 255.688 136.685L241.616 136.647C229.103 136.588 230.004 136.522 219.988 129.401C202.887 117.244 184.826 111.662 166.545 125.183C165.917 124.167 166.058 122.511 166.039 121.377L165.784 73.4635Z"/>
	<path fill="#FFCDB2" d="M187.876 129.604C195.985 129.045 203.241 132.467 209.58 137.18C221.782 146.254 224.102 148.668 239.954 148.699L252.799 148.716C261.538 148.723 270.691 149.266 279.367 148.396C295.069 146.822 299.83 135.89 312.372 131.557C326.426 126.701 339.054 132.064 344.72 145.821C347.531 152.647 347.229 159.813 347.234 167.036L347.207 249.185C346.627 274.887 329.876 289.818 312.623 306.303L299.445 318.37C284.656 331.249 275.891 336.463 255.77 336.329C232.456 336.173 223.813 328.868 206.571 313.721C189.465 298.694 170.156 281.382 165.492 258.034C164.199 251.557 164.49 245.348 164.491 238.751L164.473 153.867C165.056 142.105 175.727 130.521 187.876 129.604Z"/>
	<path fill="#E5989B" d="M169.252 360.277C178.518 378.472 190.537 395.627 208.311 406.382C244.881 428.51 293.516 422.82 323.202 391.344C331.638 382.4 338.416 371.199 344.735 360.693L433.142 398.859C439.123 401.343 445.16 403.759 450.765 407.035C470.995 418.864 486.577 442.064 489.112 465.246C489.612 469.818 489.491 474.445 489.471 479.037L402.179 478.991L23.253 478.994C21.2046 439.335 43.0816 414.779 76.7322 399.558L169.252 360.277Z"/>
</svg>
