<?xml version="1.0" encoding="utf-8" ?>
<svg xmlns="http://www.w3.org/2000/svg" xmlns:xlink="http://www.w3.org/1999/xlink" width="512" height="512">
	<path fill="#343B47" d="M251.499 9.62211L264.703 9.73786C291.375 11.1893 318.221 18.7532 341.485 32.0033C381.833 54.9842 413.923 102.249 416.356 149.36L416.487 214.394C416.486 222.63 416.147 231.033 416.701 239.25C418.215 261.745 426.891 284.628 439.022 303.397L443.793 310.251C445.587 312.603 450.538 317.139 449.135 320.485L449.018 320.75C447.023 325.458 440.859 328.464 436.712 330.978C421.176 340.395 406.345 345.194 388.414 348.022L378.8 349.08C376.442 349.46 373.97 349.421 371.582 349.462L360.767 349.603L361.131 354.461C361.406 356.333 364.437 356.656 365.978 357.244L449.552 390.685C475.819 401.109 496.686 416.538 500.826 447.076C501.399 451.306 501.343 455.386 501.349 459.651L501.352 483.644C501.342 485.353 501.452 487.238 501.129 488.916L501.062 489.25C499.83 496.021 495.314 500.768 488.503 502.324L488.165 502.399C485.778 502.944 483.149 502.761 480.708 502.763L260.625 502.769L49.7986 502.787C42.9313 502.782 27.7011 504.192 21.705 501.648L21.375 501.507C13.0135 498.037 11.07 491.791 11.0663 483.685L11.0459 459.254C11.0494 452.262 11.1546 445.557 12.9725 438.75C22.8002 401.95 51.2304 395.147 81.9981 382.937L148.523 355.636C151.857 354.307 151.687 353.572 151.787 349.889C147.615 349.346 143.375 349.542 139.179 349.373C116.628 348.462 83.4107 339.917 65.778 324.587C60.0557 319.611 65.2434 314.948 68.5731 310.323L72.2388 304.75C83.9468 285.725 92.8148 262.363 94.1947 240.043C94.7295 231.393 94.292 222.452 94.2886 213.763L94.3163 173.553C94.3243 166.562 93.9638 159.37 94.4769 152.408C100.585 69.551 171.153 11.4233 251.499 9.62211Z"/>
	<path fill="#618498" d="M255.215 425.561L281.128 452.474C285.157 456.993 283.786 462.157 283.789 467.838L283.549 490.984L257.297 490.962L228.892 491.073C228.855 486.482 228.28 456.558 229.304 454.985L229.465 454.75C232.331 450.178 236.845 445.951 240.509 441.951L255.215 425.561Z"/>
	<path fill="#95AAB5" d="M250.847 415.271C250.015 416.545 248.572 417.709 247.46 418.768L214.367 454.102C211.04 450.549 208.204 446.356 205.352 442.418L164.921 387.434C163.168 385.025 162.295 383.979 162.478 381L162.685 349.127C163.698 348.767 165.1 348.948 166.195 348.945L190.768 348.928C194.359 348.933 198.68 348.527 202.15 349.455C201.502 352.687 201.581 356.079 201.57 359.444C201.509 378.071 202.019 374.425 215.679 386.181L250.847 415.271Z"/>
	<path fill="#95AAB5" d="M308.7 349.285C310.756 348.89 313.05 348.951 315.171 348.941L348.883 348.899L348.759 381.5C348.757 384.082 348.632 384.805 347.125 386.881L310.716 437.306C306.61 443.109 302.647 449.681 297.597 454.68C293.779 449.375 289.228 444.772 284.815 439.971L260.762 414.829C263.785 412.166 267.28 410.104 270.447 407.617L302.937 379.26C307.895 374.194 310.072 372.162 309.996 364.819C309.944 359.86 309.708 354.176 308.7 349.285Z"/>
	<path fill="#CFDCD8" d="M360.043 367.315L448.88 402.92C464.999 409.497 478.797 418.664 485.724 435.338C490.357 446.488 489.517 457.229 489.507 469.042C489.503 474.405 490.707 485.23 488.755 489.934C484.142 491.4 479.097 490.939 474.3 490.941L422.437 490.956L295.046 490.967L295.109 464.334C307.356 467.415 318.826 445.203 324.639 437.219L355.977 393.439C361.567 384.917 361.033 385.019 360.345 374.875L360.043 367.315Z"/>
	<path fill="#CFDCD8" d="M151.471 367.625L151.422 381.625C151.294 388.725 157.403 395.415 161.221 400.914L194.387 446.837C201.168 455.87 205.169 464.227 217.922 464.362L217.883 491.135L90.375 490.961L34.5656 491.003C24.811 491.014 22.483 492.873 22.4469 481.646L22.4387 457.502C22.4614 437.961 30.126 421.773 46.8626 410.624C54.5548 405.5 63.5815 402.375 72.199 399.157L117.417 381.154C128.72 376.423 139.831 371.503 151.471 367.625Z"/>
	<path fill="#8ABCB5" d="M202.518 337.563L139.254 337.507C126.259 336.854 112.891 334.312 100.668 329.865C92.2497 326.802 84.7349 322.1 76.6397 318.394C95.4914 292.831 106.393 262.023 106.409 230.242L106.522 151.326C110.166 82.2884 166.753 32.683 232.698 22.8129C309.826 11.2691 391.709 59.3055 403.53 139.477C404.916 148.878 404.541 158.298 404.531 167.775L404.504 210.401C404.529 249.176 406.394 269.481 425.624 304.31L432.763 315.262C433.277 315.97 434.078 316.813 434.33 317.646C415.797 331.141 400.185 336.247 376.715 337.497L321.192 337.625C317.127 337.626 312.883 337.869 308.842 337.514C307.712 340.536 308.27 346.04 308.503 349.285C309.708 354.176 309.944 359.86 309.996 364.819C310.072 372.162 307.895 374.194 302.937 379.26L270.447 407.617C267.28 410.104 263.785 412.166 260.762 414.829C257.726 412.651 253.938 413.165 250.847 415.271L215.679 386.181C202.019 374.425 201.509 378.071 201.57 359.444C201.581 356.079 201.502 352.687 202.019 349.355C202.625 347.987 202.539 346.347 202.555 344.928L202.518 337.563Z"/>
	<path fill="#676D67" d="M154.325 162.153C153.771 161.347 153.19 160.638 153.251 159.625L153.609 159.375C155.282 159.896 156.87 160.663 158.465 161.383C156.939 161.412 155.768 161.675 154.325 162.153Z"/>
	<path fill="#9A5C3C" d="M158.465 161.383L158.725 161.527C160.92 162.707 163.696 162.323 166.136 162.308C206.384 162.063 249.866 141.692 273.15 108.126C278.685 100.146 283.459 100.023 287.159 109.34L290.139 116.358C295.064 126.789 302.009 136.339 310.656 143.995C320.749 152.93 333.632 155.361 343.978 162.135C346.228 158.08 352.383 157.824 354.067 161.47L355.011 164.017C382.501 164.218 388.879 174.958 389.633 199.172C390.122 214.881 390.096 230.882 370.164 234.679C365.902 235.491 360.872 234.997 356.517 234.984C355.044 262.684 333.578 302.982 309.067 317.871C309.75 324.32 309.318 331.017 309.032 337.496C307.712 340.536 308.27 346.04 308.503 349.285C309.708 354.176 309.944 359.86 309.996 364.819C310.072 372.162 307.895 374.194 302.937 379.26L270.447 407.617C267.28 410.104 263.785 412.166 260.762 414.829C257.726 412.651 253.938 413.165 250.847 415.271L215.679 386.181C202.019 374.425 201.509 378.071 201.57 359.444C201.581 356.079 201.502 352.687 202.019 349.355C202.625 347.987 202.539 346.347 202.555 344.928L202.518 337.563L202.476 317.298L192.936 310.246C172.979 292.523 155.576 262.103 153.97 234.821C138.073 235.662 120.752 228.998 120.62 210.938L120.593 202.405C120.587 181.851 121.124 168.384 145.625 163.639C148.363 163.109 151.499 163.026 154.131 162.216L154.325 162.153C155.768 161.675 156.939 161.412 158.465 161.383Z"/>
	<path fill="#E8C8AD" d="M150.703 174.604L153.574 174.48L153.755 224.26C148.422 224.18 144.089 223.559 139.286 221.25L136.265 219.222C131.371 215.279 132.48 207.15 132.468 201.558C132.431 185.043 131.531 176.075 150.703 174.604Z"/>
	<path fill="#E8C8AD" d="M357.045 172.938C376.113 176.642 378.766 182.411 378.978 201.331C379.058 208.483 379.844 214.39 374.507 219.847C369.783 223.759 363.019 223.643 357.199 224.05L357.045 172.938Z"/>
	<path fill="#E8C8AD" d="M299.167 325.136C298.501 329.159 298.789 333.562 298.794 337.631L298.804 365.015C298.805 366.415 299.188 367.623 297.946 368.585L256.456 405.614L223.353 377.692L214.748 370.257C213.219 368.748 213.084 368.837 213.131 366.779L213.198 325.983C218.855 331.046 248.044 341.677 255.551 343.605C260.866 344.969 293.898 328.331 299.167 325.136Z"/>
	<path fill="#E8C8AD" d="M278.592 119.375C279.578 119.823 281.981 125.773 282.582 126.926C294.426 149.681 316.162 164.274 340.307 171.184C342.106 171.699 343.963 172.03 345.741 172.589L345.754 220.808C345.749 225.188 345.863 229.608 345.464 233.972C341.46 277.802 310.603 310.429 271.399 326.611C262.832 330.148 258.253 332.395 249.375 329.502L238.437 325.363C223.179 318.612 208.724 310.989 197.125 298.725C180.1 280.723 167.638 258.013 165.366 233.052C164.609 224.739 165.085 216.038 165.095 207.682L165.251 172.797L189.607 170.823C223.605 165.576 258.039 147.476 278.592 119.375Z"/>
</svg>
