<?xml version="1.0" encoding="utf-8" ?>
<svg xmlns="http://www.w3.org/2000/svg" xmlns:xlink="http://www.w3.org/1999/xlink" width="512" height="512">
	<path fill="#013C58" d="M247.093 10.6375C274.279 9.7369 300.007 16.998 322.025 32.8314L334.809 43.1498C337.694 45.7193 338.66 46.4034 342.486 46.6519L348.448 47.2367C363.087 49.122 376.611 59.082 382.831 72.4575C388.389 84.4067 387.298 97.4063 385.869 110.083L380.038 150.047C379.454 153.2 378.894 156.351 377.801 159.372C398.717 170.352 400.742 183.537 395.403 205.434L391.491 220.75C390.38 225.025 389.382 229.419 387.679 233.508C383.082 244.545 370.786 253.187 358.932 254.764C356.585 255.076 357.564 255.575 356.911 257.871C352.641 272.893 341.53 285.8 330.099 295.978C326.879 298.845 323.433 301.452 320.395 304.511C329.351 313.343 337.352 322.911 345.565 332.417L350.359 338.348C353.574 342.428 354.17 341.974 359.07 343.362L437.274 367.128C447.577 370.263 458.421 372.536 468.351 376.717C488.534 385.216 507.649 410.471 509.649 432.546L509.965 497.665C509.615 503.226 499.962 502.178 496.558 502.173L267.125 502.164C259.357 501.738 251.325 502.126 243.534 502.125L12.0928 502.189C10.3464 502.187 7.97952 502.433 6.34922 501.8L6.09791 501.694C-0.125379 499.224 2.0274 490.349 2.02431 484.757L2.0254 442.576C2.05392 414.602 18.0065 388.074 44.0638 376.776C54.1072 372.421 65.2456 370.173 75.7342 367.088L152.382 343.468C159.236 341.435 158.501 341.212 163.124 335.969L190.958 303.48C171.477 289.198 162.125 277.298 154.365 255.221C140.918 252.492 128.708 245.964 123.777 232.146C121.937 226.989 121.049 221.484 119.598 216.21C115.922 202.851 110.127 188.711 116.644 175.264C120.109 168.114 126.378 161.924 133.924 159.303C131.014 148.109 130.028 136.297 128.651 124.832L127.309 113.043C124.162 88.9118 128.302 78.2157 145.512 59.5087C171.728 31.0108 208.159 12.2561 247.093 10.6375Z"/>
	<path fill="#A8E8F9" d="M256.752 391.496L278.324 415.411L261.551 426.75C259.242 426.602 257.002 425.612 255.597 426.254L255.343 426.373C252.606 427.135 249.89 427.949 247.321 429.171C244.43 424.334 240.655 419.097 235.779 416.063L256.752 391.496Z"/>
	<path fill="#FFBA42" d="M375.442 171.279C388.885 180.903 385.276 192.154 382.027 205.693L378.249 220.984C375.981 229.184 373.067 235.482 365.366 239.835C363.124 241.001 360.752 241.293 358.586 242.312L358.192 210.706C358.196 207.648 357.027 197.268 358.968 195.226C359.889 194.257 360.542 192.961 361.239 191.826L364.852 186.048C368.135 180.954 371.646 176.006 375.442 171.279Z"/>
	<path fill="#A8E8F9" d="M255.395 440.819L259.93 440.746C263.032 444.552 264.504 450.234 266.349 454.779L274.496 474.523C276.408 479.374 278.036 484.379 280.191 489.125L258.875 489.003L233.386 489.021C234.693 487.539 235.385 483.807 236.131 481.857L250.006 446.609C251.328 443.193 251.485 441.347 255.395 440.819Z"/>
	<path fill="#FFBA42" d="M136.011 171.375L150.437 191.388C152.871 195.319 153.884 196.272 153.878 200.875L153.8 242.898C152.053 241.705 148.553 241.299 146.43 240.463C133.63 234.397 131.397 216.031 128.655 203.788C125.897 191.471 122.926 178.742 136.011 171.375Z"/>
	<path fill="#FFD35B" d="M202.314 310.545L211.249 317.104C221.952 325.095 233.03 332.841 246.466 335.295C273 340.141 290.326 324.998 310.486 311.035L314.977 315.485L296.125 332.502L269.798 358.029C265.371 362.398 260.233 366.587 256.414 371.486L256.153 371.824C253.581 368.457 250.489 365.571 247.482 362.599L197.086 316.029L202.314 310.545Z"/>
	<path fill="#A8E8F9" d="M323.047 325.126L341.589 346.974L303.489 392.801C298.785 398.166 294.178 403.776 289.038 408.726L286.303 405.718L273.433 391.154C270.486 387.849 267.553 384.483 264.207 381.572L323.047 325.126Z"/>
	<path fill="#A8E8F9" d="M189.133 325.074L248.395 381.454L226.561 404.347C225.326 405.556 224.053 406.532 222.626 407.506C217.24 403.955 213.231 398.942 209.06 394.1L170.173 346.987L189.133 325.074Z"/>
	<defs>
		<linearGradient id="gradient_0" gradientUnits="userSpaceOnUse" x1="273.37247" y1="187.24838" x2="240.07224" y2="22.898708">
			<stop offset="0" stop-color="#F28E00"/>
			<stop offset="1" stop-color="#FEC024"/>
		</linearGradient>
	</defs>
	<path fill="url(#gradient_0)" d="M245.757 22.8565C275.501 22.2341 302.681 28.9679 325.125 50.095C332.697 57.2231 329.385 57.0367 340.399 58.6164C373.923 63.4249 378.483 82.351 373.303 113.891L367.025 150C365.071 160.237 364.232 163.304 358.138 171.665L358.291 151.181C358.364 149.069 358.881 147.076 358.991 145L359.064 132.068C359.095 128.222 359.431 124.086 358.98 120.267C357.189 105.069 343.638 96.1466 328.854 98.1586L328.375 98.2258C319.654 99.3752 312.75 106.348 305.927 111.34C279.732 130.501 253.571 134.672 222.375 130.742C214.933 129.805 207.444 128.714 200.193 126.746L164.038 115.151C163.811 113.465 164.143 111.419 164.235 109.706C165.177 92.1027 168.929 88.7981 182.391 77.2535C199.06 62.9583 217.604 53.9823 239.125 50.3336C266.854 46.5069 289.856 54.8716 311.085 71.8749L319.657 78.9145C321.139 80.1122 324.43 83.6016 326.507 82.3018C328.802 80.8655 331.492 75.0327 329.529 72.5C326.909 69.1214 322.728 66.1584 319.428 63.4585C289.611 39.0652 256.679 29.5103 218.447 41.964C197.09 48.921 172.998 65.6172 159.178 83.638C151.479 93.6763 151.686 99.5684 151.696 112.145L152.83 138.515L152.943 171.773C152.558 171.032 152.26 170.422 151.551 169.946C146.883 166.816 145.692 157.275 144.83 152.331L142.181 135C140.928 126.628 136.385 99.0938 138.99 91.6026C141.504 84.3759 145.347 78.3728 150.336 72.5624C174.688 44.1963 208.338 25.6983 245.757 22.8565Z"/>
	<path fill="#00537A" d="M353.227 355.375C354.617 354.746 356.349 355.747 357.71 356.125L431.953 378.998C441.976 381.97 452.412 383.887 462.109 387.863C480.811 395.532 495.226 414.442 497.165 434.57C497.734 440.485 497.297 446.839 497.296 452.798L497.449 489.663L417.625 490.145L293.625 490.286C292.894 489.13 292.737 487.645 292.298 486.342L272.806 435.796L291.939 422.479C295.254 420.148 298.334 417.497 301.179 414.615L338.771 371.703C343.404 366.285 347.565 359.72 353.227 355.375Z"/>
	<path fill="#00537A" d="M159.511 354.125L160.133 354.011C160.894 354.338 176.192 373.831 178.717 376.933L199.876 401.926C204.302 407.192 208.274 412.821 213.215 417.642C221.186 425.419 234.453 427.235 240.551 437.032L220.375 486.973C220.016 488.086 219.812 489.124 219.26 490.178L95.1806 489.623L14.6507 489.664C14.41 487.054 14.5527 484.328 14.545 481.705L14.466 448.7C14.4572 443.294 14.3138 437.994 15.213 432.638C17.9096 416.578 28.8617 400.169 42.7148 391.763C51.7195 386.299 61.6681 383.945 71.696 381.164L134.05 362.407L159.511 354.125Z"/>
	<path fill="#FFD35B" d="M332.098 110.575C344.201 109.709 346.763 118.119 346.628 127.605L346.53 237.636C346.53 241.932 346.639 246.294 345.999 250.556C342.358 274.823 318.347 289.913 299.911 302.919C287.917 311.381 276.022 320.893 261.058 323.015C242.4 325.661 230.369 315.672 215.967 305.792L195.566 291.698L181.592 279.169C166.205 262.484 165.332 253.019 165.312 232.331L165.371 128.784C166.526 128.718 168.442 129.47 169.588 129.78L184.591 134.217C231.137 148.431 270.613 151.506 312.413 121.613C318.467 117.283 324.522 111.746 332.098 110.575Z"/>
</svg>
