<?xml version="1.0" encoding="utf-8" ?>
<svg xmlns="http://www.w3.org/2000/svg" xmlns:xlink="http://www.w3.org/1999/xlink" width="512" height="511">
	<path fill="#9A5C3C" d="M32.8718 512L0 512L0 0L512 0L512 512L498.389 512L495.647 512L33.8057 512L32.8718 512ZM32.8718 512C33.4819 509.874 35.33 507.468 36.8725 505.875L37.4875 505.108C31.0391 504.483 21.4768 506.145 15.875 504.858L15.3871 504.748C8.34747 503.057 9.83714 496.373 9.82993 490.717L9.78853 462.214C9.78211 435.075 21.6403 408.914 46.2812 395.494C58.0774 389.069 71.1155 385.317 83.5742 380.414L180.436 341.707C185.192 339.702 190.622 337.765 194.896 334.846L191.994 314.5C190.728 305.769 191.143 306.535 185.498 299.854L179.939 292.851C172.1 282.433 166.825 270.985 163.892 258.299L161.441 246.625C161.251 245.693 161.221 244.025 160.789 243.256C135.384 252.274 130.812 229.926 130.75 210.551C130.725 202.485 130.689 191.697 138.812 187.27L140.931 186.289C136.232 169.855 132.821 153.369 130.928 136.38L129.76 125.875C129.298 118.371 129.072 103.753 130.227 96.6641C138.896 43.4518 199.398 8.13498 250.156 7.97147C279.936 7.87553 317.658 19.7113 335.216 44.5C338.908 49.7113 337.945 48.1461 343.932 50.375C366.583 58.8083 379.053 80.136 381.681 103.25C382.116 107.07 381.835 111.165 381.837 115.024C381.845 131.283 380.293 146.974 376.34 162.79L372.252 177.446C371.392 180.37 372.737 181.588 373.839 184.302C378.547 195.9 377.329 207.388 374.215 219.334C369.638 236.891 363.775 248.075 344.615 241.661C340.077 262.378 336.594 276.104 324.484 294.68C319.416 302.454 318.886 307.299 318.46 316.272L318.287 330.409C318.012 338.887 317.178 335.905 325.662 339.515L441.273 385.186C454.549 390.196 467.457 395.43 478.548 404.567C492.087 415.72 500.676 433.895 501.874 451.375L502.659 486.137C502.661 491.009 503.195 496.583 502.389 501.355C501.772 505.005 500.449 504.985 497 505.427L497.138 505.627C497.56 506.248 497.827 506.77 498.014 507.5L498.137 507.97C498.511 509.43 498.159 510.631 498.389 512L512 512L512 0L0 0L0 512L32.8718 512ZM153.927 195.125L149.256 197.117C150.413 197.142 150.768 197.537 151.583 198.297C152.46 199.084 153.611 199.412 154.706 199.796L154.774 195.125C154.262 195.022 154.522 195.025 153.927 195.125ZM352.683 229.996L352.11 229.523L350.972 228.073C348.145 232.028 351.285 232.159 354.83 232.349C354.111 231.596 353.277 230.849 352.683 229.996Z"/>
	<path fill="#CFDCD8" d="M145.493 198.125C147.36 197.969 153.364 200.004 154.75 201.491C155.406 202.195 157.361 229.905 157.458 233.018C154.972 234.11 151.507 234.747 148.887 233.948L148.934 233.542C148.565 233.226 148.171 233.007 147.75 232.769L147.291 232.875C143.879 228.957 142.124 221.494 142.347 216.375L142.646 217.429C142.68 216.551 142.699 215.939 142.348 215.125L142.092 216.014L142.286 207.375C144.438 203.752 142.803 199.638 144.75 198.663L145.493 198.125Z"/>
	<path fill="#CFDCD8" d="M352.11 229.523C351.957 228.93 351.693 226.875 351.07 226.875C353.205 217.097 354.652 207.308 355.312 197.318C355.426 195.596 355.735 186.496 356.252 185.628C356.971 184.421 358.876 184.003 359.375 182.55C370.868 189.635 365.055 214.527 361.277 224.277C360.568 226.106 359.631 229.029 358.375 230.549L357.832 230.595C356.11 230.105 354.478 229.936 352.683 229.996L352.11 229.523Z"/>
	<path fill="#8ABCB5" d="M329.246 354.307C331.435 354.814 333.534 355.809 335.614 356.645L380.025 372.673C371.541 384.822 362.483 397.551 351.02 407.071C340.13 415.871 326.027 419.464 312.206 418.665C313.493 416.117 315.594 409.164 316.449 406.258C321.493 389.114 326.368 371.972 329.246 354.307Z"/>
	<path fill="#CFDCD8" d="M310.913 420.944C322.917 428.424 336.411 433.15 348.25 441.009L357.662 447.634L329.763 481.315C327.373 484.105 320.106 492.618 316.466 493.666C315.312 493.998 296.543 493.937 296.192 493.712C296.787 492.326 296.866 490.796 297.149 489.325L305.413 450.168C307.258 440.366 308.478 430.655 310.913 420.944Z"/>
	<path fill="#CFDCD8" d="M179.821 429.635C186.85 428.298 193.989 426.35 201.143 425.91C204.33 434.871 205.411 444.612 207.466 453.874L215.67 491.83C215.749 492.433 215.947 493.179 215.837 493.777L196.745 493.784C193.359 493.797 193.238 494.542 191.125 491.576L154.651 448.272L173.349 433.787C175.388 432.197 177.391 430.588 179.821 429.635Z"/>
	<path fill="#CFDCD8" d="M203.607 344.375C204.355 344.71 208.148 353.464 208.973 354.746C212.354 359.994 217.469 364.149 222.077 368.288L238.601 383.259C243.996 388.458 248.171 394.483 254.251 398.966L255.21 398.638C261.02 396.496 265.91 390.729 270.177 386.458L289.112 369.195C300.11 360.334 304.134 357.614 310.162 344.316L310.539 344.392C312.157 345.009 315.251 347.222 315.737 348.833L315.818 349.125C316.455 351.162 316.267 353.356 316.248 355.473C316.164 363.056 314.517 371.474 311.484 378.43C304.207 395.123 269.177 403.196 252.986 401.654C236.48 400.083 219.197 393.037 206.969 381.72C197.684 373.127 196.185 364.916 196.206 352.539C196.214 347.906 196.935 346.495 201.625 344.74C201.632 346.216 202.828 345.169 203.419 344.57L203.607 344.375Z"/>
	<path fill="#8ABCB5" d="M172.321 416.28L164.204 409.266C152.666 398.812 143.81 385.094 132.084 375.468L177.566 357.002C178.99 356.368 180.691 355.312 182.223 355.068L182.185 355.873C182.91 355.718 183.253 355.609 183.848 355.125C184.692 357.712 185.143 363.799 186.071 367.396L194.662 403.399C196.424 411.013 198.839 418.449 201.143 425.91C193.989 426.35 186.85 428.298 179.821 429.635L178.878 429.125C176.447 427.81 172.65 424.7 173.437 421.559L173.568 421.217C173.989 419.823 172.944 417.542 172.321 416.28Z"/>
	<path fill="#696C5A" d="M172.321 416.28L177.948 421.419C176.352 421.257 174.997 421.845 173.437 421.559L173.568 421.217C173.989 419.823 172.944 417.542 172.321 416.28Z"/>
	<path fill="#CFDCD8" d="M33.8057 512C34.4565 509.41 37.5393 508.119 38.7572 505.727L39.0131 505.285C40.6683 504.933 42.3702 505.025 44.0539 505.022L495.563 505.735C496.244 507.807 496.141 509.9 495.647 512L33.8057 512Z"/>
	<path fill="#BD9079" d="M242.382 269.899L289.75 269.933C291.788 269.956 294.029 269.844 296.022 270.278L296.375 270.361C299.577 271.03 302.771 278.263 304.389 280.773C308.152 286.608 313.031 292.146 311.855 299.599L311.787 300C308.564 320.185 299.376 280.603 293.875 276.761C282.903 275.984 290.407 310.114 291.886 316.239C293.725 323.853 299.698 347.609 292.493 354.07C291.749 354.737 291.179 355.616 290.584 356.417L287.354 321.117C286.172 313.423 284.669 303.889 279.514 297.833C271.856 304.5 272.163 307.979 271.83 318.1C271.743 320.732 271.323 323.333 271.273 325.972C271.085 335.88 272.174 346.55 267.845 355.819L260.105 322.028C259.871 320.466 258.473 315.292 256.578 314.841C252.657 317.827 252.325 324.62 251.379 329.059L247.298 350.132C246.913 352.655 247.051 355.305 246.445 357.764L241.106 309.055C240.255 303.636 238.557 302.23 234.315 299.134C224.698 315.589 223.522 339.833 225.095 358.153C220.225 347.558 217.25 341.633 219.094 330.048L221.382 316.9C222.532 309.684 225.278 290.152 223.31 282.974L223.208 282.625C222.443 279.944 219.903 276.271 216.625 276.79C214.139 279.01 213.225 282.775 212.189 285.865L208.089 298.156C206.995 301.416 205.981 305.106 204.009 307.933L201.717 305.125C196.638 297.668 202.325 288.674 205.848 281.694C207.33 278.756 210.749 270.409 214.693 270.11L242.382 269.899Z"/>
	<path fill="#9A5C3C" d="M259.841 281.969L272.8 281.934C275.205 282.126 276.451 285.318 276.119 287.377L275.926 288.492C273.859 299.01 260.111 303.221 250.808 301.272C241.535 300.878 230.953 288.559 235.375 282.245C238.485 281.844 241.689 281.991 244.821 281.984L259.841 281.969Z"/>
	<path fill="#95AAB5" d="M217.733 436.878L212.875 422.735C208.801 411.67 206.726 406.287 205.127 394.768C209.795 397.514 214.264 400.588 219.112 403.018C242.791 414.889 269.858 416.177 294.495 405.997C297.694 404.675 300.769 403.099 304.025 401.908C301.864 415.189 298.003 428.293 294.987 441.407L283.952 489.686C283.681 490.738 283.48 492.499 282.716 493.264L230.207 493.675C225.633 483.879 222.918 471.868 221.245 461.25L218.691 443.771C217.924 441.567 217.716 439.197 217.733 436.878Z"/>
	<defs>
		<linearGradient id="gradient_0" gradientUnits="userSpaceOnUse" x1="232.14363" y1="452.22562" x2="215.60637" y2="443.52438">
			<stop offset="0" stop-color="#5E5956"/>
			<stop offset="1" stop-color="#626A6C"/>
		</linearGradient>
	</defs>
	<path fill="url(#gradient_0)" d="M217.733 436.878L217.984 437.323C219.299 439.573 221.454 441.414 222.884 443.703C223.725 445.048 239.454 471.595 229.968 458.721L225.625 452.989C223.141 449.888 220.936 447.038 218.691 443.771C217.924 441.567 217.716 439.197 217.733 436.878Z"/>
	<path fill="#ADD0CB" d="M118.408 380.526L119.375 380.431C123.544 383.474 127.132 388.071 130.525 391.933L150.939 415.306C154.888 419.51 158.629 421.025 162.17 424.509C157.454 432.968 138.647 439.679 140.139 447.428L140.207 447.75C141.752 455.655 159.673 473.618 165.163 480.606L172.46 489.941C173.157 490.867 173.638 492.444 174.554 493.101L99.625 493.29L20.7785 493.378C20.6543 454.14 16.0213 419.882 57.8541 402.159L94.8008 388.05C102.566 385.131 110.416 382.731 118.408 380.526Z"/>
	<path fill="#8ABCB5" d="M391.576 378.721C395.511 379.657 399.376 381.108 403.204 382.407L430.25 392.472C439.636 396.123 449.345 399.217 458.188 404.107C475.291 413.566 489.053 429.404 491.349 449.375C492.02 455.21 491.873 461.1 491.888 466.963L491.784 493.335L410.996 493.288L337.121 493.728C338.219 492.678 338.587 491.453 339.43 490.216L372.786 446.27C369.146 440.047 352.081 427.611 346.206 424.206C347.056 423.029 348.991 421.982 350.2 421.121L357.807 415.486C366.87 408.416 374.547 399.76 381.726 390.834L391.576 378.721Z"/>
	<path fill="#BD9079" d="M161.558 58.5841L161.793 58.497C163.999 57.622 165.822 55.6034 167.529 54.002L174.747 47.3616C193.29 31.2768 210.764 24.7331 234.636 21.3089C267.008 16.6652 299.702 23.4952 322.402 48.7377C326.385 53.1672 326.89 56.7422 333.063 59.0301L339.232 61.4075C352.262 66.7294 360.028 75.7848 365.423 88.815C373.258 107.735 368.679 128.788 365.245 148.139C364.005 155.124 363.835 164.677 359.045 170.31C356.267 168.135 355.753 165.443 354.472 162.253C349.263 149.282 339.04 146.784 333.313 137.125C329.012 129.87 332.65 121.214 330.317 116.506C326.033 107.858 313.017 104.398 304.377 102.91C285.151 99.6007 264.437 104.328 246.091 110.103L192.214 126.375C183.827 128.51 173.289 129.721 165.981 134.692C160.926 138.131 160.053 144.451 159.115 150.02C157.439 159.966 156.641 170.533 153.244 180.097C144.49 167.898 141.704 127.259 141.582 112.959C141.394 90.7835 147.857 77.7556 161.352 59.8084C157.733 62.0039 153.065 62.0911 148.928 62.2631L161.558 58.5841Z"/>
	<path fill="#CFDCD8" d="M287.224 112.354C296.271 111.107 310.166 113.876 317.421 119.127C319.752 120.814 319.585 121.168 319.57 123.875L319.758 129.195C320.429 137.739 325.692 145.712 331.851 151.395C342.164 160.909 345.347 162.735 345.355 177.891C345.365 198.305 342.907 220.442 335.288 239.5C329.909 252.955 322.61 260.968 310.997 269.568L308.22 266.375C299.886 257.941 289.58 258.467 278.625 257.743C274.349 257.461 269.946 256.772 265.671 256.981C262.5 257.135 259.415 258.236 256.221 258.293C253.046 258.349 250.105 257.281 246.941 257.234L225.438 257.986C205.909 259.445 208.362 259.785 197.233 272.229L193.797 270.113C172.141 255.497 167.931 239.984 166.861 214.357L168.068 171.32C168.418 166.461 169.09 147.336 171.625 143.965C174.168 140.581 187.797 138.68 191.961 137.65L210.122 132.49C235.758 124.871 260.402 115.096 287.224 112.354Z"/>
</svg>
