<?xml version="1.0" encoding="utf-8" ?>
<svg xmlns="http://www.w3.org/2000/svg" xmlns:xlink="http://www.w3.org/1999/xlink" width="512" height="512">
	<path fill="#1A2649" d="M20.2397 512L0 512L0 0L238.595 0L269.156 0L512 0L512 512L492.794 512L20.2397 512ZM269.156 0L269.464 0.0892383C271.56 0.669923 273.738 0.790642 275.883 1.1175C301.24 4.98143 326.663 16.0742 344.084 35.2752C364.992 58.3192 373.48 91.1389 365.387 121.368L362.08 131.611C370.77 142.429 375.687 150.659 374.14 165.629L373.826 167.953C372.158 182.951 361.746 203.723 344.857 205.894C341.621 206.31 341.738 212.29 340.343 216.143L335.153 230.169C334.481 231.992 333.389 234.133 333.088 236.034C340.279 246.197 354.027 248.556 364.558 253.66C375.458 258.943 384.219 266.458 391.032 276.5C394.958 282.287 400.124 293.081 389.174 295.114C385.115 295.867 380.63 295.099 376.496 295.491C370.517 296.059 364.702 297.741 358.766 298.56C367.995 299.415 381.755 302.18 390.729 304.675L407.921 310.375C425.202 316.537 453.624 328.702 465.724 343.536C486.265 368.716 493.971 444.101 496.911 475.125L497.947 487.25C498.644 492.934 499.36 499.698 498.671 505.439C498.367 507.971 494.629 510.545 492.794 512L512 512L512 0L269.156 0ZM20.2397 512C11.226 504.722 13.1642 501.474 13.9477 490.514L15.1697 474.236C18.3361 437.358 24.8586 375.407 45.73 344.648C51.3353 336.387 59.9594 331.408 68.4499 326.644C95.7101 311.349 123.013 304.076 153.641 298.433C149.789 297.204 145.757 296.031 141.721 295.614C128.829 294.283 106.49 299.012 120.616 277.231C127.868 266.049 139.068 256.865 151.412 251.768C162.167 247.327 171.008 246.795 178.622 236.702L166.852 205.474C140.662 205.06 129.054 165.006 139.278 143.242C141.011 139.554 143.305 136.36 145.931 133.27C135.834 114.294 132.296 84.1328 143.479 64.7774C150.396 52.8059 159.764 47.7036 172.484 44.3951C180.057 19.4128 206.009 5.7652 230.285 1.51738C232.948 1.05135 235.7 0.829063 238.305 0.0864791L238.595 0L0 0L0 512L20.2397 512Z"/>
	<path fill="#997B66" d="M186.644 247.232C192.14 255.09 192.761 255.38 200.132 262.125C201.711 263.57 201.074 266.827 201.081 268.798L201.244 288.722C200.827 289.696 199.782 290.01 198.963 290.597C193.545 294.477 188.959 299.791 184.384 304.585C179.446 298.004 171.274 292.493 164.1 288.62C156.815 284.81 148.299 281.749 140.086 280.89C137.877 280.659 135.581 280.932 133.432 280.68C139.683 273.687 146.911 267.921 155.564 264.125C168.855 258.295 175.028 259.147 186.644 247.232Z"/>
	<path fill="#997B66" d="M326.153 247.188C335.197 257.067 332.944 254.93 345.731 259.615C361.451 265.375 368.641 269.547 380.163 280.938C368.223 281.416 360.539 283.774 349.531 289.012C341.122 292.845 334.438 297.548 327.888 303.951C324.744 299.979 320.974 296.639 317.082 293.417L312.903 290.036C309.784 287.604 311.018 285.321 311.029 281.494L311.393 267.721C311.572 264.606 310.352 263.287 312.77 261.132L316.834 257.471C320.356 254.236 323.229 250.949 326.153 247.188Z"/>
	<path fill="#797D62" d="M282.868 350.125C283.143 350.733 282.674 352.315 282.536 353.005L265.881 441.786L261.573 471.266C260.309 480.729 259.434 490.912 256.258 499.961L250.069 468.74L229.483 350.525C247.103 364.315 265.628 365.425 282.868 350.125Z"/>
	<path fill="#FFCB69" d="M298.924 272.021C298.777 289.905 298.736 293.431 293.776 310.5L289.199 325.465C286.342 334.118 287.068 333.737 279.074 338.489C268.865 344.558 260.388 352.894 248.988 347.175L230.75 337.478C226.932 335.559 226.281 334.792 224.823 330.811L221.9 322.289L214.665 294.343C213.839 291.859 214.059 288.692 214.011 286.075L213.84 272.683C214.276 272.832 214.572 273.527 215.085 273.774C221.917 277.065 227.278 283.062 233.937 286.77C252.313 296.999 271.783 292.335 287.812 280.733L298.924 272.021Z"/>
	<path fill="#F1DCA7" d="M310.102 303.262L353.08 356.439C337.901 369.86 332.075 361.615 342.672 385.392L294.731 477.621L286.218 493.603C282.409 500.512 284.52 500.209 277.51 500.089L269.413 500.091C269.89 498.974 269.887 497.474 270.038 496.27L277.136 450.375L296.016 349.32C299.54 333.738 304.536 318.228 310.102 303.262Z"/>
	<path fill="#F1DCA7" d="M202.564 301.936C203.225 305.96 204.524 309.732 205.781 313.598L210.953 329.307C213.926 338.563 216.112 348.051 217.952 357.59L242.082 495.373C242.261 496.743 242.313 498.189 242.648 499.53L229.687 499.936C228.533 498.726 225.958 493.185 225.004 491.375L217.377 476.581C215.874 473.166 213.891 469.842 212.145 466.534L175.214 398.493C172.397 393.254 168.145 388.272 170.326 382.666C171.329 380.086 175.343 371.609 174.37 369.372L174.253 369.125C172.063 363.914 163.111 359.389 158.787 355.996L202.564 301.936Z"/>
	<path fill="#997B66" d="M246.282 13.34L269.382 13.9929C320.251 19.5114 361.563 54.5268 355.314 108.703C354.517 115.613 353.014 124.944 347.322 129.466C342.833 114.559 343.193 104.268 328.736 92.8881C311.138 79.0355 302.9 82.1684 283.875 88.8555C270.172 93.6721 255.957 94.8288 241.657 92.2036C229.949 89.579 212.649 80.1878 202.727 82.1771C179.863 86.761 168.806 102.639 164.037 124.011C163.722 125.424 163.432 127.267 162.625 128.481L160.75 128.508C155.016 128.21 153.04 119.868 151.942 115.5C147.911 99.4547 146.523 74.9676 161.096 63.4425C174.512 52.8332 196.983 57.8282 204.034 52.1857C207.056 49.7681 206.981 46.6848 204.318 43.962C201.884 41.4728 198.321 41.9902 195.149 41.9983L187.771 42.0293C188.115 41.6226 188.337 41.3149 188.528 40.8103C190.68 35.1484 196.38 30.3762 201.119 26.8891C214.466 17.0686 230.087 14.2015 246.282 13.34Z"/>
	<path fill="#797D62" d="M166.074 308.085C169.9 307.691 173.031 310.285 175.392 313.038C174.31 315.503 172.674 317.64 171.082 319.794L151.413 344.915C149.217 347.82 146.484 350.98 145.268 354.453L145.128 354.875C142.6 362.317 156.752 369.412 161.142 373.358L158.552 381.201C155.839 391.138 160.203 396.171 164.872 404.491L216.063 500.101C214.477 500.424 212.017 500.026 210.32 500.024L111.069 500.022L32.3018 500.06C30.7609 500.072 28.1854 500.44 26.8082 499.985L27.172 484.375L31.5993 438.699C33.6235 422.975 36.3691 407.407 40.0916 391.995C46.8332 364.083 50.2704 351.027 75.8425 336.87C99.9526 323.522 122.588 317.479 149 311.703C154.655 310.466 160.358 308.975 166.074 308.085Z"/>
	<path fill="#797D62" d="M343.275 307.256C345.755 307.258 348.364 307.925 350.8 308.367L391.07 317.894C407.134 322.65 423.069 328.617 437.516 337.193C459.382 350.172 463.904 362.224 470.407 386.8C477.114 412.146 480.775 437.826 483.599 463.858C484.912 475.961 486.36 487.86 486.65 500.042L408.312 500.023L297.458 500.076C298.101 499.276 298.424 498.089 298.848 497.145L347.889 402.986C350.341 398.144 355.756 390.863 354.609 385.143L354.525 384.75C353.837 381.445 350.55 375.747 352.376 373.673C356.817 368.627 364.94 364.975 366.965 358.306C368.355 353.728 363.745 349.221 361.245 345.843L346.758 327.266C343.409 323.118 339.162 318.769 336.754 314.037C338.287 311.114 340.424 308.895 343.275 307.256Z"/>
	<path fill="#FFCB69" d="M206.139 94.5754C208.766 94.2632 211.525 95.3964 213.968 96.2332L234.052 102.875C251.921 107.354 270.369 107.064 287.754 100.803C300.148 96.3396 305.588 92.4603 317.986 100.687C333.362 110.89 335.562 128.3 334.364 145.125C334.093 148.928 332.782 153.59 333.628 157.338L333.7 157.625C334.5 160.991 338.574 163.922 341.867 161.875C348.846 157.537 344.703 146.295 352.081 141.726C361.797 144.371 361.65 160.101 360.635 167.842C359.687 175.067 356.715 182.51 351.724 187.91C342.375 198.024 335.664 187.32 331.558 201.039L328.767 210.461C321.155 234.658 313.331 245.18 294.12 260.074L292.569 261.322C280.978 270.599 268.14 281.38 252.25 279.587C242.298 278.464 235.98 272.753 228.215 267.083C204.442 249.724 193.151 241.796 182.663 212.71L179.669 203.855C178.673 200.685 177.774 196.678 175.617 194.091C172.354 190.178 163.922 195.373 156.243 186.271C147.202 175.555 146.162 160.695 151.599 148.133C152.521 146.003 155.219 140.989 158.297 141.821C164.343 143.456 163.873 153.896 166.336 158.375C168.791 162.837 174.332 162.465 177.06 158.536C180.935 152.958 168.874 128.518 182.196 109.978C187.563 102.509 196.969 96.0437 206.139 94.5754Z"/>
</svg>
