<?xml version="1.0" encoding="utf-8" ?>
<svg xmlns="http://www.w3.org/2000/svg" xmlns:xlink="http://www.w3.org/1999/xlink" width="512" height="511">
	<path fill="#013C58" d="M249.38 2.83392C319.581 -0.34436 383.595 53.392 396.812 122.2C398.254 129.708 398.615 137.056 398.984 144.64L399.496 262.289C399.502 265.832 399.367 269.446 399.625 272.979L404.068 309.25C405.562 317.905 407.754 326.43 409.895 334.941L423.373 381.625C424.761 386.382 423.791 385.261 428.464 387.32L464.505 404.004C484.5 414.705 499.623 433.862 507.125 455.079C508.245 458.245 509.745 461.732 509.946 465.096C510.148 468.482 510.33 503.471 509.796 504.362C509.424 504.981 508.541 505.677 508.027 506.22L504.995 509.603C504.212 509.95 503.226 509.962 502.375 509.978L262.875 509.981L9.65266 509.89C8.47204 509.778 3.18754 506.644 2.20759 505.484C1.93337 502.729 2.02811 499.945 2.02393 497.179L2.02579 473.349C2.06709 449.197 22.2898 419.438 42.049 407.14C46.4986 404.37 51.2907 402.08 56.0135 399.82L81.2578 388.507C89.6842 384.819 89.0622 387.591 91.243 380.263L103.263 334.047C107.937 313.774 111.923 293.154 112.898 272.326L113.009 155.388C113.013 150.084 112.88 144.717 113.225 139.423C116.456 89.9323 146.392 42.7054 190.482 19.708C208.498 10.3103 229.223 4.83532 249.38 2.83392Z"/>
	<path fill="#FFBA42" d="M199.693 294.243C237.688 328.026 274.812 327.867 312.689 295.183L312.501 317.498C312.5 322.514 311.935 328.672 313.313 333.483L314.055 336.25C317.945 348.532 330.263 354.014 340.73 359.577C335.824 370.508 326.884 380.861 317.828 388.434C283.379 417.872 219.27 414.336 187.835 382.463C181.68 376.223 176.293 367.985 172.289 360.123C191.082 350.431 200.223 344.624 200.285 322.416L200.213 312C199.901 306.207 199.229 300.037 199.693 294.243Z"/>
	<defs>
		<linearGradient id="gradient_0" gradientUnits="userSpaceOnUse" x1="256.8035" y1="256.40482" x2="105.33957" y2="120.10082">
			<stop offset="0" stop-color="#FA9D00"/>
			<stop offset="1" stop-color="#FFDE68"/>
		</linearGradient>
	</defs>
	<path fill="url(#gradient_0)" d="M173.538 153.387L152.202 153.321C144.076 153.316 135.881 151.185 136.766 162.75C137.07 166.724 137.664 170.704 138.294 174.638L142.301 193.844C149 222.776 159.446 250.545 179.437 273.187L185.569 279.762C186.515 280.763 187.917 281.974 188.545 283.195C188.754 283.601 188.682 322.964 188.496 326.663C187.841 339.767 176.05 344.743 165.814 349.833L104.757 378.586C105.059 376.313 106.208 373.721 106.827 371.452L116.335 332.203C120.197 314.185 123.302 295.548 124.645 277.162C125.587 264.266 125.05 251.157 125.048 238.226L125.053 172.952C125.027 140.443 124.187 117.078 140.053 86.6392C164.134 40.4432 217.803 10.9146 269.76 16.2286L269.797 16.725C270.301 16.788 270.764 16.916 271.251 16.9988L271.625 17C273.382 17.0386 276.317 17.4039 278 18.125C277.358 18.7879 276.772 19.0387 275.875 18.8775L275.25 19.1887C274.18 19.8546 271.871 20.0713 270.627 20.375L269.625 20.6275C269.157 20.7241 268.822 20.8486 268.375 21L266.067 21.9291C260.36 23.0613 254.542 25.9762 249.347 28.4909C223.595 40.9576 200.342 65.4094 188.101 91.0161C182.962 101.765 180.497 112.846 177.596 124.25L176.473 130.749C175.712 134.73 175.651 138.755 174.873 142.625C174.38 145.073 174.57 150.212 173.873 152.625C173.786 152.924 173.395 153.069 173.538 153.387Z"/>
	<path fill="#FFD35B" d="M269.664 108.552C270.834 110.858 271.534 113.526 272.681 115.899C285.672 142.776 316.131 161.937 345.228 165.019C351.366 165.67 357.648 165.356 363.821 165.519L359.607 189.572C355.19 209.55 348.307 229.875 337.459 247.337C318.714 277.514 283.379 314.851 244.931 306.232C194.486 292.89 163.879 236.585 153.182 189C151.411 181.124 149.879 173.377 149.294 165.312L171.554 165.351C184.567 165.351 197.906 164.953 210.322 160.621C234.681 152.122 258.285 132.09 269.664 108.552Z"/>
	<defs>
		<linearGradient id="gradient_1" gradientUnits="userSpaceOnUse" x1="362.55548" y1="393.99222" x2="242.72998" y2="24.941851">
			<stop offset="0" stop-color="#F89D00"/>
			<stop offset="1" stop-color="#FFC256"/>
		</linearGradient>
	</defs>
	<path fill="url(#gradient_1)" d="M269.76 16.3507C333.42 23.1437 383.421 77.9033 387.179 141.875C387.431 146.162 387.279 150.528 387.282 154.824L387.296 237.287C387.294 251.681 387.004 266.143 388.11 280.502C389.622 300.138 394.088 319.539 398.892 338.588L409.956 378.936C409.562 379.09 408.021 378.312 407.602 378.125L372.374 361.732C361.412 356.65 350.064 351.872 339.715 345.606C324.585 336.445 323.973 334.275 323.961 317.301L323.986 296.88C323.99 292.807 324.251 288.555 323.698 284.517C330.432 275.848 337.885 267.799 344.178 258.773C358.74 237.886 370.294 206.636 374.137 180.974L375.752 168.25C377.601 152.167 376.374 153.558 360.125 153.571C334.884 153.59 310.728 144.7 294.181 125.369C283.309 112.668 275.403 96.0005 275.176 79.0395L275.117 72.9691C275.01 66.0368 267.25 64.6051 263.787 70.161C261.728 73.4633 262.988 81.4525 262.487 85.5305C259.466 110.103 241.705 132.739 219.701 143.563C215.122 145.976 202.625 151.621 197.274 151.463C189.867 153.441 181.183 153.452 173.538 153.351C173.395 153.069 173.786 152.924 173.873 152.625C174.57 150.212 174.38 145.073 174.873 142.625C175.651 138.755 175.712 134.73 176.473 130.749L177.596 124.25C180.497 112.846 182.962 101.765 188.101 91.0161C200.342 65.4094 223.595 40.9576 249.347 28.4909C254.542 25.9762 260.36 23.0613 266.067 21.9291L268.375 21C268.822 20.8486 269.157 20.7241 269.625 20.6275L270.627 20.375C271.871 20.0713 274.18 19.8546 275.25 19.1887L275.875 18.8775C276.772 19.0387 277.358 18.7879 278 18.125C276.317 17.4039 273.382 17.0386 271.625 17L271.251 16.9988C270.764 16.916 270.301 16.788 269.797 16.725L269.76 16.3507Z"/>
	<path fill="#A8E8F9" d="M14.7075 473.475C15.1421 454.09 26.0179 436.764 39.6774 423.681C46.4651 417.179 54.8005 413.268 63.2803 409.489L99.9475 394.685L162.223 366.226C163.441 369.909 165.843 373.701 167.964 376.949C208.266 438.679 317.093 434.775 350.38 366.764L351.203 365.12C355.459 367.583 360.037 369.572 364.506 371.616L451.474 411.042C479.108 424.232 496.179 443.759 498.127 476.004L497.863 497.566L14.8827 497.543C14.0987 495.844 14.5293 475.649 14.7075 473.475Z"/>
	<path fill="#58BADC" d="M41.8228 431.875L38.5445 436.774C37.4466 438.06 36.1017 439.803 34.375 439.961L34.1087 439.641C34.147 438.497 35.6331 437.888 36.4553 437.192C38.387 435.556 40.1412 433.767 41.8228 431.875Z"/>
</svg>
