<?xml version="1.0" encoding="utf-8" ?>
<svg xmlns="http://www.w3.org/2000/svg" xmlns:xlink="http://www.w3.org/1999/xlink" width="512" height="512">
	<path fill="#6D6875" d="M248.352 2.06452C254.014 1.95353 259.984 1.7503 265.619 2.17112C335.585 7.39635 394.871 58.0418 403.215 129.604C404.212 138.149 404.246 146.63 404.25 155.215L404.249 271.833C404.248 293.315 405.291 305.769 422.333 321.673C429.433 328.299 430.048 326.351 428.971 337.37C433.929 337.896 444.673 336.844 448.291 337.745C454.291 339.238 455.213 347.053 450.035 350.08L448.926 350.708C447.296 351.446 444.928 351.256 443.165 351.254L395.059 351.328C386.357 351.607 383.628 351.838 376.481 346.153C375.825 345.632 374.74 344.518 373.995 344.318C367.925 342.691 355.226 343.933 349.327 345.146C350.109 346.609 355.735 348.097 357.292 348.802L455.867 399.729C474.211 409.022 490.695 417.134 494.256 440.104C495.04 445.161 494.57 450.779 494.56 455.898L494.616 497.008C494.697 502.082 496.474 506.168 491.329 509.006L490.992 509.188C489.986 509.755 489.202 509.916 488.064 509.956L260.938 509.972L22.8693 509.83C15.8625 509.123 17.5744 496.742 17.571 492.23L17.5682 451.169C17.5897 421.024 29.4672 412.898 55.9351 400.14L158.163 347.045C159.422 346.456 160.611 345.514 161.83 345.025L164.28 344.032C161.619 343.816 142.49 343.054 140.226 343.857C135.114 345.67 131.522 350.564 125.751 351.235C122.786 351.58 119.521 351.313 116.523 351.291L75.2762 350.865C67.952 350.851 60.7748 352.539 57.7196 344.028C58.5182 340.285 61.1476 337.996 65.064 337.714L83.8025 337.837C83.4502 335.21 82.9317 331.975 83.4095 329.367L83.4845 329C84.0919 325.953 87.8213 323.889 90.0369 322.048C106.333 308.508 107.948 294.451 107.972 275.063L108.019 151.941C108.023 147.128 107.787 142.17 108.155 137.375C113.934 62.1035 172.998 7.26542 248.352 2.06452ZM188.564 328.347L173.239 346.398L202.817 381.301C209.518 388.581 220.124 400.628 229.861 403.3C234.616 404.164 239.297 402.976 243.222 400.23L244.427 399.314C239.895 391.252 234.139 383.81 228.498 376.5L200.184 340.813C196.565 336.466 192.891 332.016 188.564 328.347ZM324.313 327.875C313.215 339.201 306.243 349.907 296.846 361.718L274.132 390.494C272.069 393.357 269.921 396.198 268.07 399.204C273.294 402.026 277.163 403.572 283.06 403.5C284.349 403.325 285.423 403.088 286.647 402.625L287.01 402.491C294.239 399.736 304.29 387.63 309.327 382.009L324.542 364.541C329.494 358.568 335.34 352.543 338.979 345.659L324.313 327.875ZM165.056 356.572L142.844 370.095C145.052 373.424 146.873 376.958 148.826 380.44L158.208 397.25C160.252 401.006 169.521 418.166 172.659 419.921L177.884 416.651L202.565 399.666C197.982 395.724 194.141 390.842 190.159 386.3L168.15 360.436C167.178 359.211 166.199 357.609 165.056 356.572ZM347.411 357.136L317.821 391.819C315.386 394.434 312.899 397.23 310.187 399.552L334.86 416.828C341.87 421.292 340.528 421.173 345.257 413.682L366.664 373.432C367.296 372.034 368.271 370.454 368.697 369.011L354.75 361.271C352.424 359.988 349.479 358.785 347.411 357.136Z"/>
	<path fill="#E5989B" d="M262.246 474.508L482.244 476.354L482.102 498.519L262.264 498.479L262.246 474.508Z"/>
	<path fill="#E5989B" d="M250.256 475.291L250.083 498.497L30.2632 498.603L30.1825 476.178C30.9045 475.915 33.9049 476.278 34.875 476.239C37.1319 476.148 39.373 475.698 41.625 475.628L250.256 475.291Z"/>
	<path fill="#FFB4A2" d="M311.423 293.478C310.69 300.462 311.022 315.069 311.601 321.907C310.844 323.691 305.272 330.073 303.6 332.298L256.413 391.324L221.453 347.167L209.365 332.55C206.574 329.175 203.858 325.541 200.637 322.565L200.273 322.231C201.386 317.499 201.276 313.359 201.277 308.501L201.222 294.499C201.511 294.603 201.964 295.207 202.207 295.45C218.061 311.262 236.828 318.457 258.929 318.257C278.325 318.081 297.95 307.148 311.423 293.478Z"/>
	<path fill="#FFB4A2" d="M30.1936 476.267L30.1792 456.905C30.1695 433.762 31.5891 426.124 54.4083 414.768L99.3262 391.564C109.929 386.115 120.761 381.087 131.001 374.957L159.622 423.643C168.727 437.687 174.724 434.45 186.544 425.56L196.431 418.531C201.086 415.394 206.112 412.829 210.696 409.627C211.602 410.038 212.39 410.773 213.251 411.286C221.925 416.447 233.751 418.066 243.243 414.613C245.529 413.781 247.582 412.476 249.802 411.503L250.067 475.303L41.625 475.628C39.373 475.698 37.1319 476.148 34.875 476.239C33.9049 476.278 30.9045 475.915 30.1936 476.267Z"/>
	<path fill="#FFB4A2" d="M262.251 474.508L262.525 412.09C276.682 418.557 289.312 417.719 302.056 409.177L302.363 409.428C304.32 411.005 306.544 412.195 308.676 413.513L317.367 419.193C327.871 426.402 340.296 441.773 351.325 426.557L380.975 375.219L457.371 414.275C480.52 425.984 482.227 433.476 482.218 457.278L482.204 476.492L262.251 474.508Z"/>
	<path fill="#FFCDB2" d="M281.956 93.2809L306.372 93.2668C309.55 93.305 309.257 93.9221 311.301 96.3326C320.857 107.599 333.464 114.961 345.289 123.55C345.688 128.688 345.484 133.934 345.487 139.087L345.54 188.664C345.546 193.38 345.783 198.234 345.303 202.929C341.752 237.643 326.468 264.032 300.929 286.574C281.806 303.453 260.736 312.034 235.177 302.18C198.726 287.994 167.481 238.716 167.179 199.266L167.161 146.752C168.307 146.399 169.743 146.432 170.951 146.336L197.005 142.58C222.564 137.529 247.553 127.426 266.864 109.484C272.289 104.444 276.568 98.2976 281.956 93.2809Z"/>
	<path fill="#B5838D" d="M251.84 14.9158C317.312 12.5307 380.825 59.9156 390.424 126.021C391.728 135.003 391.612 143.792 391.609 152.833L391.585 252.335C391.59 279.007 388.534 302.853 407.325 324.529C411.249 329.056 416.054 332.127 417.707 338.197C404.402 339.395 381.617 339.586 373.148 328.908C360.751 313.279 356.261 291.906 355.157 272.273L355.252 234.196L356.652 211.471C356.865 208.195 357.25 205.036 357.264 201.734L357.248 126.24C357.257 123.988 357.587 121.109 357.206 118.915C356.705 116.034 332.972 99.9232 328.957 96.595C324.758 93.115 321.069 89.0896 317.019 85.4427C310.952 79.9792 310.374 80.3013 302.182 80.2749L286.313 80.2768C284.012 80.2829 278.697 79.3887 276.959 81.2409L270.522 88.1297C249.753 114.233 215.52 127.498 183.48 132.426C180.113 132.944 176.62 133.58 173.22 133.774L164.625 133.965C152.498 134.223 155.324 140.989 155.457 150.552L155.567 211.319C155.701 215.811 156.054 220.679 156.234 225.28L156.813 255.178C156.871 280.678 155.977 294.55 143.134 318.57C136.27 331.407 131.163 338.018 115.433 338.239L101.375 337.799C91.5988 337.027 94.829 335.56 100.971 329.627C116.908 314.234 120.068 300.321 120.032 279.758L119.993 154.988C120.014 111.532 133.986 72.0473 169.259 44.0547C190.607 27.1122 224.193 15.3909 251.84 14.9158Z"/>
</svg>
